<?xml version="1.0" encoding="utf-8"?>
<!-- Generator: Adobe Illustrator 27.5.0, SVG Export Plug-In . SVG Version: 6.00 Build 0)  -->
<svg version="1.1" xmlns="http://www.w3.org/2000/svg" xmlns:xlink="http://www.w3.org/1999/xlink" x="0px" y="0px"
	 viewBox="0 0 750 500" style="enable-background:new 0 0 750 500;" xml:space="preserve">
<g id="BACKGROUND">
	<rect style="fill:#FFFFFF;" width="750" height="500"/>
</g>
<g id="OBJECTS">
	<g>
		<g>
			<g>
				<path style="fill:#EDF6FE;" d="M75.921,333.602c18.233-4.877,28.58-27.227,19.125-54.357
					c-5.466-15.684-50.606-98.994,33.388-172.792c85.083-74.754,177.056,31.557,248.908,18.929
					c21.126-3.713,43.626-21.33,59.322-35.95c21.721-20.232,47.413-32.113,68.417-25.08c26.44,8.854,42.982,50.406,59.792,72.651
					c16.81,22.245,37.151,45.306,64.716,49.502c13.85,2.108,29.399-0.525,40.748,7.689c15.908,11.514,12.944,36.059,5.418,54.197
					c-7.526,18.138-23.405,43.488-17.32,62.159c4.983,15.288,25.17,19.218,32.78,33.384c5.566,10.362,6.886,22.926,3.593,34.218
					c-3.442,11.804-11.449,21.631-17.605,32.274c-6.156,10.643-1.974,25.704,2.56,37.133l-597.858,1.106
					C27.236,381.667,52.391,339.895,75.921,333.602z"/>
			</g>
			<g>
				<rect x="45.303" y="437.667" style="fill:#BBCFF5;" width="665.933" height="22"/>
			</g>
		</g>
		<g>
			<g>
				<g>
					<rect x="168.148" y="340.81" style="fill:#3D7699;" width="409.276" height="62.036"/>
				</g>
			</g>
			<g>
				<g>
					<path style="fill:#E64B37;" d="M637.043,319.186v89.299h-78.955c0-24.25-19.658-43.909-43.909-43.909
						c-24.25,0-43.909,19.658-43.909,43.909H284.163c0-24.25-19.658-43.909-43.908-43.909c-24.25,0-43.909,19.658-43.909,43.909
						h-78.149V178.244c0-7.219,5.849-13.068,13.068-13.068h408.857c6.59,0,12.133,4.898,12.955,11.424l14.679,100.418l47.437,13.342
						C628.116,293.985,637.043,305.78,637.043,319.186z"/>
				</g>
			</g>
			<g>
				<g>
					<path style="fill:#BBCFF5;" d="M107.723,389.956c-2.67,0-4.834,2.164-4.834,4.834v8.862c0,2.67,2.164,4.834,4.834,4.834h45.117
						v-18.53H107.723z"/>
				</g>
			</g>
			<g>
				<g>
					<path style="fill:#BBCFF5;" d="M640.87,389.956h-45.721v18.53h45.721c2.336,0,4.23-1.894,4.23-4.23v-10.071
						C645.099,391.849,643.206,389.956,640.87,389.956z"/>
				</g>
			</g>
			<g>
				<g>
					
						<ellipse transform="matrix(0.7071 -0.7071 0.7071 0.7071 -218.4741 289.5284)" style="fill:#4B566B;" cx="240.255" cy="408.486" rx="39.075" ry="39.075"/>
				</g>
			</g>
			<g>
				<g>
					<circle style="fill:#86B8ED;" cx="240.255" cy="408.486" r="20.792"/>
				</g>
			</g>
			<g>
				<g>
					<circle style="fill:#5B9DCE;" cx="240.255" cy="408.486" r="14.099"/>
				</g>
			</g>
			<g>
				<g>
					<path style="fill:#4382A8;" d="M245.894,408.486c0,3.115-2.525,5.64-5.64,5.64c-3.115,0-5.64-2.525-5.64-5.64
						c0-3.115,2.525-5.64,5.64-5.64C243.369,402.846,245.894,405.371,245.894,408.486z"/>
				</g>
			</g>
			<g>
				<g>
					
						<ellipse transform="matrix(0.7071 -0.7071 0.7071 0.7071 -138.2435 483.2224)" style="fill:#4B566B;" cx="514.179" cy="408.486" rx="39.075" ry="39.075"/>
				</g>
			</g>
			<g>
				<g>
					<circle style="fill:#86B8ED;" cx="514.179" cy="408.486" r="20.792"/>
				</g>
			</g>
			<g>
				<g>
					<circle style="fill:#5B9DCE;" cx="514.179" cy="408.486" r="14.099"/>
				</g>
			</g>
			<g>
				<g>
					<circle style="fill:#4382A8;" cx="514.179" cy="408.486" r="5.64"/>
				</g>
			</g>
			<g>
				<g>
					<path style="fill:#FFFFFF;" d="M638.251,328.725h-6.042v40.686h6.042c2.002,0,3.625-1.623,3.625-3.625v-33.435
						C641.877,330.349,640.253,328.725,638.251,328.725z"/>
				</g>
			</g>
			<g>
				<g>
					<path style="fill:#FFAC04;" d="M624.152,328.725c-2.225,0-4.028,1.803-4.028,4.028v32.629c0,2.225,1.804,4.028,4.028,4.028
						h8.057v-40.686H624.152z"/>
				</g>
			</g>
			<g>
				<g>
					<path style="fill:#FFAC04;" d="M115.78,328.725c-1.335,0-2.417,1.082-2.417,2.417v35.852c0,1.335,1.082,2.417,2.417,2.417
						h10.474v-40.686H115.78z"/>
				</g>
			</g>
			<g>
				<g>
					
						<rect x="126.254" y="328.725" transform="matrix(-1 -1.224647e-16 1.224647e-16 -1 256.5357 698.1367)" style="fill:#4B566B;" width="4.028" height="40.686"/>
				</g>
			</g>
			<g>
				<g>
					<path style="fill:#F76054;" d="M113.363,349.068v17.926c0,1.335,1.082,2.417,2.417,2.417h10.474v-20.343H113.363z"/>
				</g>
			</g>
			<g>
				<g>
					<path style="fill:#EFF8FF;" d="M554.985,270.918l-10.06-79.76c-0.305-2.417-2.36-4.229-4.796-4.229h-13.462v89.428h23.522
						C553.099,276.357,555.349,273.805,554.985,270.918z"/>
				</g>
			</g>
			<g>
				<g>
					<path style="fill:#4B566B;" d="M544.794,252.993h-7.003c-1.557,0-2.82,1.263-2.82,2.82v39.477c0,1.557,1.263,2.82,2.82,2.82
						h7.003c1.557,0,2.82-1.262,2.82-2.82v-39.477C547.614,254.256,546.352,252.993,544.794,252.993z"/>
				</g>
			</g>
			<g>
				<g>
					<circle style="fill:#4B566B;" cx="553.937" cy="279.861" r="4.309"/>
				</g>
			</g>
			<g>
				<g>
					<path style="fill:#4B566B;" d="M553.413,282.4c-0.23,0-0.463-0.033-0.694-0.101l-12.118-3.625
						c-1.279-0.384-2.006-1.731-1.624-3.009c0.384-1.279,1.728-1.998,3.009-1.624l12.118,3.625c1.279,0.384,2.006,1.731,1.624,3.009
						C555.413,281.723,554.453,282.4,553.413,282.4z"/>
				</g>
			</g>
			<g>
				<g>
					<g>
						<path style="fill:#C6372C;" d="M411.458,178.872c0,69.824,0,139.648,0,209.472c0,2.074,3.223,2.077,3.223,0
							c0-69.824,0-139.648,0-209.472C414.68,176.799,411.458,176.795,411.458,178.872L411.458,178.872z"/>
					</g>
				</g>
			</g>
			<g>
				<g>
					<g>
						<path style="fill:#C6372C;" d="M413.875,389.956c15.845,0,31.689,0,47.534,0c2.074,0,2.077-3.223,0-3.223
							c-15.845,0-31.689,0-47.534,0C411.801,386.733,411.797,389.956,413.875,389.956L413.875,389.956z"/>
					</g>
				</g>
			</g>
			<g>
				<g>
					<g>
						<path style="fill:#C6372C;" d="M521.833,290.054c0,20.947,0,41.894,0,62.841c0,2.074,3.223,2.077,3.223,0
							c0-20.947,0-41.894,0-62.841C525.056,287.98,521.833,287.977,521.833,290.054L521.833,290.054z"/>
					</g>
				</g>
			</g>
			<g>
				<g>
					<g>
						<path style="fill:#C6372C;" d="M462.962,388.773c4.355-13.286,11.703-25.118,25.497-30.265
							c10.953-4.087,23.444-3.995,34.985-4.001c2.074-0.001,2.077-3.224,0-3.223c-12.928,0.007-27.938-0.273-39.736,5.788
							c-12.814,6.583-19.52,17.623-23.854,30.844C459.207,389.891,462.318,390.738,462.962,388.773L462.962,388.773z"/>
					</g>
				</g>
			</g>
			<g>
				<g>
					<g>
						<path style="fill:#C6372C;" d="M428.779,297.463c5.908,0,11.816,0,17.725,0c3.11,0,3.116-4.834,0-4.834
							c-5.908,0-11.816,0-17.725,0C425.669,292.629,425.664,297.463,428.779,297.463L428.779,297.463z"/>
					</g>
				</g>
			</g>
			<g>
				<g>
					<g>
						<path style="fill:#C6372C;" d="M548.42,366.591c19.336,0,38.672,0,58.008,0c3.11,0,3.115-4.834,0-4.834
							c-19.336,0-38.672,0-58.008,0C545.31,361.758,545.304,366.591,548.42,366.591L548.42,366.591z"/>
					</g>
				</g>
			</g>
			<g>
				<g>
					<g>
						<path style="fill:#C6372C;" d="M139.144,366.591c19.336,0,38.672,0,58.008,0c3.11,0,3.116-4.834,0-4.834
							c-19.336,0-38.672,0-58.008,0C136.034,361.758,136.029,366.591,139.144,366.591L139.144,366.591z"/>
					</g>
				</g>
			</g>
			<g>
				<g>
					<g>
						<path style="fill:#C6372C;" d="M290.608,366.591c35.449,0,70.898,0,106.347,0c3.11,0,3.116-4.834,0-4.834
							c-35.449,0-70.898,0-106.347,0C287.498,361.758,287.493,366.591,290.608,366.591L290.608,366.591z"/>
					</g>
				</g>
			</g>
			<g>
				<g>
					<g>
						
							<ellipse transform="matrix(0.2366 -0.9716 0.9716 0.2366 -56.0931 458.0131)" style="fill:#FFFFFF;" cx="263.418" cy="264.702" rx="67.769" ry="67.769"/>
					</g>
				</g>
				<g>
					<g>
						<circle style="fill:#EDAF1C;" cx="263.418" cy="264.702" r="63.128"/>
					</g>
				</g>
				<g>
					<g>
						<circle style="fill:#FFEC7F;" cx="263.418" cy="264.702" r="54.151"/>
					</g>
				</g>
				<g>
					<g>
						<g>
							<path style="fill:#D6971A;" d="M261.779,202.6c-0.861,4.532-0.542,9.307-0.553,13.902c-0.013,5.163-0.03,10.327-0.039,15.49
								c-0.018,10.328,0.155,20.653,0.146,30.981c-0.017,20.592-0.879,41.399,0.234,61.961c0.048,0.89,1.336,0.892,1.384,0
								c1.114-20.563,0.251-41.369,0.234-61.961c-0.008-10.041,0.161-20.079,0.149-30.12c-0.006-5.163-0.026-10.327-0.039-15.49
								c-0.012-4.865,0.356-9.965-0.555-14.762C262.651,202.124,261.869,202.124,261.779,202.6L261.779,202.6z"/>
						</g>
					</g>
				</g>
				<g>
					<g>
						<g>
							<path style="fill:#D6971A;" d="M204.763,264.363c9.64,1.208,19.827,0.347,29.537,0.348
								c10.135,0.001,20.27,0.002,30.406,0.003c9.846,0.001,19.691,0.002,29.537,0.003c10.044,0.001,20.411,0.716,30.406-0.303
								c0.745-0.076,0.747-1.084,0-1.161c-9.715-0.99-19.774-0.304-29.537-0.303c-10.135,0.001-20.271,0.002-30.406,0.003
								c-9.846,0.001-19.691,0.002-29.537,0.003c-9.987,0.001-20.491-0.894-30.406,0.348
								C204.083,263.389,204.082,264.278,204.763,264.363L204.763,264.363z"/>
						</g>
					</g>
				</g>
				<g>
					<g>
						<g>
							<path style="fill:#D6971A;" d="M305.929,218.469c-3.811,2.593-6.961,6.197-10.216,9.436
								c-3.66,3.642-7.323,7.281-10.981,10.926c-7.316,7.29-14.494,14.713-21.803,22.01c-14.573,14.549-29.895,28.652-43.648,43.979
								c-0.596,0.664,0.314,1.576,0.979,0.979c15.327-13.753,29.429-29.075,43.979-43.648c7.095-7.106,14.312-14.084,21.403-21.193
								c3.647-3.656,7.284-7.32,10.926-10.981c3.43-3.447,7.297-6.79,10.043-10.826
								C306.889,218.744,306.337,218.192,305.929,218.469L305.929,218.469z"/>
						</g>
					</g>
				</g>
				<g>
					<g>
						<g>
							<path style="fill:#D6971A;" d="M221.945,221.822c6.045,7.782,13.984,14.475,20.947,21.439
								c7.064,7.065,14.127,14.13,21.191,21.195c6.862,6.863,13.724,13.726,20.586,20.589c7.201,7.202,14.117,15.149,22.013,21.584
								c0.581,0.474,1.295-0.239,0.821-0.821c-6.258-7.679-13.975-14.405-20.979-21.407c-7.065-7.064-14.13-14.127-21.195-21.191
								c-6.863-6.862-13.726-13.724-20.589-20.585c-7.161-7.159-14.044-15.337-22.045-21.552
								C222.152,220.653,221.524,221.28,221.945,221.822L221.945,221.822z"/>
						</g>
					</g>
				</g>
				<g>
					<g>
						
							<ellipse transform="matrix(0.9246 -0.381 0.381 0.9246 -77.0035 108.0649)" style="fill:#E94B46;" cx="234.46" cy="248.536" rx="7.372" ry="7.372"/>
					</g>
				</g>
				<g>
					<g>
						<circle style="fill:#E94B46;" cx="251.292" cy="234.489" r="7.372"/>
					</g>
				</g>
				<g>
					<g>
						<path style="fill:#E94B46;" d="M237.902,275.649c0,3.84-3.113,6.953-6.953,6.953c-3.84,0-6.953-3.113-6.953-6.953
							c0-3.84,3.113-6.953,6.953-6.953C234.789,268.695,237.902,271.809,237.902,275.649z"/>
					</g>
				</g>
				<g>
					<g>
						<circle style="fill:#E94B46;" cx="274.853" cy="292.212" r="7.819"/>
					</g>
				</g>
				<g>
					<g>
						<circle style="fill:#E94B46;" cx="246.623" cy="297.641" r="7.819"/>
					</g>
				</g>
				<g>
					<g>
						<path style="fill:#E94B46;" d="M302.522,273.385c0,3.841-3.114,6.955-6.955,6.955c-3.841,0-6.955-3.114-6.955-6.955
							c0-3.841,3.114-6.955,6.955-6.955C299.408,266.43,302.522,269.543,302.522,273.385z"/>
					</g>
				</g>
				<g>
					<g>
						<circle style="fill:#E94B46;" cx="276.375" cy="234.489" r="7.819"/>
					</g>
				</g>
				<g>
					<g>
						<circle style="fill:#E94B46;" cx="296.956" cy="248.221" r="7.819"/>
					</g>
				</g>
				<g>
					<g>
						<g>
							<path style="fill:#85B23B;" d="M220.27,248.671c-0.728,2.119,0.113,4.439,1.737,5.915c1.314,1.194,4.64,2.822,5.873,0.719
								c0.235-0.4,0.202-1.052-0.177-1.369c-1.047-0.875-2.552-0.458-3.673-1.373c-1.088-0.888-1.595-2.197-1.461-3.58
								C222.703,247.602,220.676,247.491,220.27,248.671L220.27,248.671z"/>
						</g>
					</g>
				</g>
				<g>
					<g>
						<g>
							<path style="fill:#85B23B;" d="M284.245,258.715c1.406-0.826,2.413,0.349,3.295,1.304c0.649,0.703,1.919,0.161,1.894-0.785
								c-0.077-2.931-4.185-3.87-6.258-2.348C282.103,257.675,283.042,259.422,284.245,258.715L284.245,258.715z"/>
						</g>
					</g>
				</g>
				<g>
					<g>
						<g>
							<path style="fill:#85B23B;" d="M235.004,306.67c1.406-0.826,2.413,0.349,3.295,1.304c0.649,0.703,1.919,0.161,1.894-0.785
								c-0.077-2.931-4.185-3.87-6.258-2.348C232.862,305.63,233.801,307.377,235.004,306.67L235.004,306.67z"/>
						</g>
					</g>
				</g>
				<g>
					<g>
						<g>
							<path style="fill:#85B23B;" d="M253.058,219.719c0.185,1.597,1.057,2.973,2.491,3.747c1.254,0.677,3.774,1.192,4.351-0.581
								c0.156-0.48-0.114-0.938-0.491-1.207c-0.757-0.539-1.789,0.001-2.653-0.353c-0.843-0.346-1.409-1.002-1.598-1.89
								C254.912,218.277,252.918,218.511,253.058,219.719L253.058,219.719z"/>
						</g>
					</g>
				</g>
				<g>
					<g>
						<g>
							<path style="fill:#85B23B;" d="M290.004,297.163c-0.737-1.36,0.476-2.776,1.851-2.909c1.891-0.182,3.548,1.564,5.342,0.998
								c0.44-0.139,0.804-0.639,0.633-1.115c-0.555-1.541-2.403-2.097-3.901-2.406c-1.506-0.311-3.115-0.28-4.426,0.609
								c-1.854,1.257-3.052,4.358-0.987,5.971C289.327,298.943,290.551,298.173,290.004,297.163L290.004,297.163z"/>
						</g>
					</g>
				</g>
				<g>
					<g>
						<g>
							<path style="fill:#85B23B;" d="M225.652,288.083c-0.537,1.484,0.304,3.029,1.595,3.793c1.35,0.798,3.472,0.829,3.979-0.966
								c0.152-0.537-0.294-1.292-0.923-1.211c-0.609,0.078-1.225,0.234-1.71,0.036c-0.388-0.158-0.95-0.599-0.86-1.077
								C227.989,287.29,226.127,286.772,225.652,288.083L225.652,288.083z"/>
						</g>
					</g>
				</g>
				<g>
					<g>
						<g>
							<path style="fill:#85B23B;" d="M251.795,284.146c1.182-0.732,2.3-0.299,3.577-0.217c0.584,0.038,1.013-0.709,0.686-1.195
								c-1.172-1.737-3.773-1.41-5.27-0.311C249.777,283.165,250.679,284.837,251.795,284.146L251.795,284.146z"/>
						</g>
					</g>
				</g>
				<g>
					<g>
						<g>
							<path style="fill:#85B23B;" d="M299.536,238.044c-0.032-0.488,0.248-1.148,0.843-1.092c0.624,0.059,0.823,0.912,1.235,1.271
								c0.517,0.451,1.289,0.398,1.663-0.214c1.124-1.838-1.367-3.68-3.043-3.542c-1.923,0.157-3.132,2.026-2.738,3.854
								C297.74,239.453,299.613,239.219,299.536,238.044L299.536,238.044z"/>
						</g>
					</g>
				</g>
				<g>
					<g>
						<g>
							<path style="fill:#85B23B;" d="M267.679,279.743c-0.032-0.488,0.248-1.148,0.843-1.092c0.624,0.059,0.823,0.912,1.235,1.271
								c0.517,0.451,1.289,0.398,1.663-0.214c1.124-1.838-1.367-3.68-3.043-3.542c-1.923,0.157-3.132,2.026-2.738,3.854
								C265.884,281.152,267.757,280.918,267.679,279.743L267.679,279.743z"/>
						</g>
					</g>
				</g>
				<g>
					<g>
						<g>
							<path style="fill:#85B23B;" d="M264.218,243.879c-0.99,1.431-0.767,3.545,0.547,4.706c1.19,1.053,4.334,1.637,4.803-0.507
								c0.117-0.535-0.156-1.158-0.732-1.29c-0.797-0.182-1.675,0.382-2.423-0.033c-0.645-0.358-0.747-1.234-0.419-1.839
								C266.632,243.74,264.965,242.8,264.218,243.879L264.218,243.879z"/>
						</g>
					</g>
				</g>
				<g>
					<g>
						<g>
							<path style="fill:#85B23B;" d="M229.065,236.322c-0.266-0.534-0.371-1.283,0.176-1.697c0.315-0.238,0.995-0.241,1.271,0.122
								c1.211,1.587,3.445-0.092,2.19-1.69c-1.229-1.564-3.771-1.802-5.259-0.485c-1.371,1.214-1.633,3.87-0.09,5.07
								C228.308,238.383,229.647,237.49,229.065,236.322L229.065,236.322z"/>
						</g>
					</g>
				</g>
				<g>
					<g>
						<g>
							<path style="fill:#85B23B;" d="M262.246,308.999c0.392-1.296-1.315-2.094-2.255-1.281c-1.323,1.143-0.129,3.074,1.012,3.796
								c2.367,1.497,6.356,0.414,6.383-2.758c0.009-1.069-1.326-1.279-1.878-0.509c-0.427,0.596-1.255,1.059-1.976,1.166
								c-0.354,0.053-0.766,0.046-1.1-0.099c-0.152-0.066-0.291-0.151-0.412-0.264c-0.112-0.104-1.317-1.695-1.354-0.264
								C260.642,309.708,261.987,309.854,262.246,308.999L262.246,308.999z"/>
						</g>
					</g>
				</g>
				<g>
					<g>
						<g>
							<path style="fill:#85B23B;" d="M277.281,268.177c-0.889,1.51-0.099,3.149,1.214,4.133c1.185,0.888,3.291,1.442,4.544,0.368
								c0.665-0.569,1.071-1.632,0.275-2.282c-0.647-0.528-1.364-0.144-2.068-0.057c-1.128,0.138-1.855-0.956-2.086-1.916
								C278.95,267.55,277.719,267.433,277.281,268.177L277.281,268.177z"/>
						</g>
					</g>
				</g>
				<g>
					<g>
						<g>
							<path style="fill:#EDAF1C;" d="M272.16,221.136c-0.051-0.093-0.102-0.185-0.153-0.278c-0.285-0.519-1.1-0.932-1.69-0.688
								c0.055-0.003,0.111-0.007,0.166-0.01c-0.687,0.038-1.184,0.531-1.222,1.222c0.003-0.055,0.007-0.111,0.01-0.166
								c-0.244,0.588,0.16,1.4,0.688,1.69c0.093,0.051,0.185,0.102,0.278,0.153C271.477,223.739,272.842,222.376,272.16,221.136
								L272.16,221.136z"/>
						</g>
					</g>
				</g>
				<g>
					<g>
						<g>
							<path style="fill:#EDAF1C;" d="M276.356,310.392c-0.051-0.093-0.102-0.185-0.153-0.278c-0.285-0.519-1.1-0.932-1.69-0.688
								c0.055-0.004,0.111-0.007,0.166-0.01c-0.687,0.038-1.184,0.53-1.222,1.222c0.003-0.055,0.007-0.111,0.01-0.166
								c-0.244,0.588,0.16,1.4,0.688,1.69c0.093,0.051,0.185,0.102,0.278,0.153C275.672,312.996,277.038,311.633,276.356,310.392
								L276.356,310.392z"/>
						</g>
					</g>
				</g>
				<g>
					<g>
						<g>
							<path style="fill:#EDAF1C;" d="M242.279,224.97c1.769,0,1.772-2.749,0-2.749C240.51,222.221,240.507,224.97,242.279,224.97
								L242.279,224.97z"/>
						</g>
					</g>
				</g>
				<g>
					<g>
						<g>
							<path style="fill:#EDAF1C;" d="M243.163,260.446c0.689,0.415,1.381,0.827,2.067,1.247c0.62,0.379,1.479,0.135,1.841-0.483
								c0.33-0.565,0.19-1.556-0.483-1.841c-0.746-0.316-1.489-0.641-2.233-0.963c-0.585-0.253-1.266-0.173-1.616,0.424
								C242.413,259.389,242.616,260.116,243.163,260.446L243.163,260.446z"/>
						</g>
					</g>
				</g>
				<g>
					<g>
						<g>
							<path style="fill:#EDAF1C;" d="M220.218,268.52c0.474,0.496,0.908,0.873,1.52,1.195c0.992,0.522,2.041-0.525,1.518-1.518
								c-0.322-0.611-0.7-1.046-1.195-1.52c-0.509-0.486-1.338-0.505-1.843,0C219.71,267.185,219.731,268.009,220.218,268.52
								L220.218,268.52z"/>
						</g>
					</g>
				</g>
				<g>
					<g>
						<g>
							<path style="fill:#EDAF1C;" d="M249.488,272.693c0.973,0.648,2.003,1.586,3.165,1.811c1.065,0.206,1.689-0.934,1.02-1.753
								c-0.746-0.912-2.068-1.375-3.096-1.922C249.343,270.173,248.335,271.924,249.488,272.693L249.488,272.693z"/>
						</g>
					</g>
				</g>
				<g>
					<g>
						<g>
							<path style="fill:#EDAF1C;" d="M288.712,284.265c0.874,1.207,2.511,1.956,4.009,1.916c1.584-0.043,1.524-2.264,0-2.419
								c-0.53-0.054-1.013-0.072-1.525-0.234c-0.505-0.159-0.987-0.383-1.484-0.564C289.014,282.71,288.266,283.649,288.712,284.265
								L288.712,284.265z"/>
						</g>
					</g>
				</g>
				<g>
					<g>
						<g>
							<path style="fill:#EDAF1C;" d="M306.075,254.844c-0.303,1.418,0.506,2.974,1.981,3.316c0.73,0.169,1.504,0.04,2.143-0.352
								c0.823-0.505,1.087-1.3,0.942-2.216c-0.104-0.656-1.094-1.071-1.627-0.662c-0.24,0.184-0.5,0.332-0.735,0.522
								c-0.124,0.1-0.18,0.234-0.322,0.217c0.103,0.012-0.103-0.06-0.156-0.12c-0.11-0.125-0.115-0.246-0.106-0.417
								C308.257,253.926,306.33,253.65,306.075,254.844L306.075,254.844z"/>
						</g>
					</g>
				</g>
				<g>
					<g>
						<g>
							<path style="fill:#EDAF1C;" d="M307.413,282.871c1.419,0.298,2.971-0.51,3.311-1.987c0.168-0.73,0.037-1.505-0.356-2.142
								c-0.506-0.821-1.302-1.087-2.218-0.939c-0.653,0.106-1.074,1.094-0.662,1.628c0.184,0.239,0.333,0.499,0.523,0.733
								c0.101,0.125,0.235,0.176,0.221,0.32c0.01-0.102-0.054,0.102-0.116,0.158c-0.124,0.112-0.244,0.119-0.416,0.11
								C306.497,280.692,306.216,282.619,307.413,282.871L307.413,282.871z"/>
						</g>
					</g>
				</g>
				<g>
					<g>
						<g>
							<path style="fill:#EDAF1C;" d="M274.625,253.104c0.818,1.648,3.327,3.343,5.041,2.012c0.608-0.472,0.318-1.432-0.23-1.782
								c-0.541-0.346-1.188-0.238-1.764-0.49c-0.439-0.191-0.77-0.525-1.008-0.932C275.89,250.588,273.954,251.753,274.625,253.104
								L274.625,253.104z"/>
						</g>
					</g>
				</g>
				<g>
					<g>
						<g>
							<path style="fill:#EDAF1C;" d="M280.793,306.404c0.689,0.057,1.451,0.193,2.138,0.104c0.677-0.087,1.265-0.519,1.265-1.265
								c0-0.756-0.584-1.177-1.265-1.265c-0.687-0.088-1.45,0.047-2.138,0.104C279.302,304.207,279.299,306.28,280.793,306.404
								L280.793,306.404z"/>
						</g>
					</g>
				</g>
				<g>
					<g>
						<g>
							<path style="fill:#EDAF1C;" d="M257.248,300.409c0.241,0.259,0.472,0.534,0.727,0.779c0.488,0.469,0.927,0.614,1.603,0.501
								c0.382-0.064,0.802-0.484,0.866-0.866c0.11-0.661-0.028-1.111-0.501-1.603c-0.245-0.255-0.521-0.486-0.779-0.727
								c-0.535-0.498-1.385-0.53-1.915,0C256.715,299.028,256.749,299.872,257.248,300.409L257.248,300.409z"/>
						</g>
					</g>
				</g>
				<g>
					<g>
						<g>
							<path style="fill:#EDAF1C;" d="M236.469,287.25c0.139,0.022,0.277,0.044,0.416,0.065c0.775,0.122,1.555-0.326,1.555-1.185
								c0-0.851-0.779-1.307-1.555-1.185c-0.139,0.022-0.277,0.044-0.416,0.065C235.361,285.186,235.36,287.076,236.469,287.25
								L236.469,287.25z"/>
						</g>
					</g>
				</g>
				<g>
					<g>
						<g>
							<path style="fill:#EDAF1C;" d="M216.597,280.047c-0.657,1.858,0.652,4.421,2.815,4.283c1.074-0.069,1.648-1.572,0.581-2.144
								c-0.595-0.319-1.327-0.864-1.197-1.533C219.079,279.21,217.089,278.659,216.597,280.047L216.597,280.047z"/>
						</g>
					</g>
				</g>
				<g>
					<g>
						<g>
							<path style="fill:#EDAF1C;" d="M281.858,222.101c0.607-0.279,1.345-0.341,1.991-0.189c0.685,0.16,1.249,0.66,1.93,0.785
								c0.697,0.128,1.237-0.4,1.102-1.102c-0.224-1.168-1.608-1.802-2.663-1.98c-1.213-0.205-2.384-0.004-3.409,0.693
								C279.693,221.067,280.649,222.657,281.858,222.101L281.858,222.101z"/>
						</g>
					</g>
				</g>
				<g>
					<g>
						<g>
							<path style="fill:#EDAF1C;" d="M257.033,245.606c0.62-0.292,1.181-0.595,1.415-1.283c0.147-0.432-0.17-0.888-0.576-1.014
								c-0.694-0.216-1.318,0.146-1.907,0.469c-0.501,0.275-0.663,0.965-0.38,1.449
								C255.894,245.756,256.514,245.851,257.033,245.606L257.033,245.606z"/>
						</g>
					</g>
				</g>
				<g>
					<g>
						<g>
							<path style="fill:#EDAF1C;" d="M221.234,243.809c0.62-0.292,1.181-0.595,1.415-1.283c0.147-0.432-0.17-0.888-0.576-1.014
								c-0.694-0.217-1.318,0.145-1.907,0.469c-0.501,0.275-0.663,0.965-0.38,1.449
								C220.095,243.959,220.715,244.054,221.234,243.809L221.234,243.809z"/>
						</g>
					</g>
				</g>
				<g>
					<g>
						<g>
							<path style="fill:#EDAF1C;" d="M247.781,220.069c0.331,0.041,0.662,0.081,0.993,0.122c0.667,0.082,1.242-0.629,1.242-1.242
								c0-0.608-0.571-1.324-1.242-1.242c-0.331,0.041-0.662,0.081-0.993,0.122c-0.6,0.074-1.12,0.462-1.12,1.12
								C246.661,219.616,247.178,219.995,247.781,220.069L247.781,220.069z"/>
						</g>
					</g>
				</g>
				<g>
					<g>
						<g>
							<path style="fill:#EDAF1C;" d="M311.353,269.307c0.058-0.085,0.13-0.154,0.216-0.21c-0.238,0.099-0.476,0.197-0.714,0.296
								c0.017-0.002,0.033-0.004,0.05-0.006c0.563-0.072,0.922-0.322,1.124-0.856c0.201-0.532,0.416-1.061,0.583-1.605
								c0.198-0.646-0.236-1.365-0.875-1.54c-0.67-0.184-1.341,0.226-1.54,0.875c-0.167,0.543-0.285,1.099-0.416,1.651
								c-0.092,0.385-0.017,0.862,0.3,1.134c0.02,0.017,0.04,0.035,0.061,0.052c-0.086-0.148-0.173-0.297-0.26-0.445
								c0.009,0.019,0.019,0.038,0.028,0.057C309.977,269.357,310.833,269.926,311.353,269.307L311.353,269.307z"/>
						</g>
					</g>
				</g>
				<g>
					<g>
						<g>
							<path style="fill:#EDAF1C;" d="M213.044,255.162c-0.067,0.034-0.13,0.074-0.189,0.121c0.162-0.044,0.325-0.088,0.487-0.132
								c-0.033,0.002-0.065,0.003-0.098,0.005c-0.385,0.018-0.852,0.204-1.021,0.586c-0.804,1.81,0.19,4.083,2.302,4.217
								c0.411,0.026,0.956-0.258,1.126-0.646c0.289-0.659,0.202-1.375-0.468-1.785c-0.133-0.081-0.276-0.165-0.411-0.242
								c-0.132-0.085-0.139-0.082-0.023,0.007c-0.062-0.054-0.121-0.112-0.176-0.173c0.223,0.25-0.178-0.343-0.037-0.048
								c-0.072-0.152-0.103-0.311-0.152-0.47c0.018,0.132,0.023,0.122,0.015-0.029c-0.035,0.184-0.026,0.105,0.027-0.235
								c0-0.375-0.176-0.629-0.403-0.905c0.083,0.313,0.165,0.626,0.248,0.938c0.008-0.079,0.022-0.156,0.044-0.233
								C214.485,255.412,213.715,254.775,213.044,255.162L213.044,255.162z"/>
						</g>
					</g>
				</g>
				<g>
					<g>
						<g>
							<path style="fill:#EDAF1C;" d="M293.405,230.595c0.483,0.268,0.961,0.555,1.46,0.793c0.264,0.126,0.559,0.305,0.841,0.375
								c0.461,0.115,0.884,0.025,1.302-0.174c0.487-0.231,0.646-0.852,0.543-1.334c-0.254-1.187-1.805-1.576-2.779-1.999
								c-0.67-0.291-1.453-0.198-1.853,0.486C292.555,229.364,292.763,230.24,293.405,230.595L293.405,230.595z"/>
						</g>
					</g>
				</g>
				<g>
					<g>
						<g>
							<path style="fill:#EDAF1C;" d="M300.687,288.148c0.591-0.239,1.178-0.382,1.819-0.35c0.717,0.035,1.353,0.428,2.007-0.077
								c0.515-0.397,0.686-0.922,0.402-1.532c-0.024-0.051-0.048-0.102-0.071-0.153c-0.2-0.429-0.696-0.617-1.132-0.649
								c-1.352-0.099-2.653,0.179-3.817,0.883C298.94,286.845,299.569,288.6,300.687,288.148L300.687,288.148z"/>
						</g>
					</g>
				</g>
			</g>
			<g>
				<g>
					<g>
						<path style="fill:#C6372C;" d="M146.395,205.056c12.085,0,24.17,0,36.255,0c1.555,0,1.558-2.417,0-2.417
							c-12.085,0-24.17,0-36.255,0C144.84,202.639,144.837,205.056,146.395,205.056L146.395,205.056z"/>
					</g>
				</g>
			</g>
			<g>
				<g>
					<g>
						<path style="fill:#C6372C;" d="M146.395,230.838c8.862,0,17.724,0,26.587,0c1.555,0,1.558-2.417,0-2.417
							c-8.862,0-17.725,0-26.587,0C144.84,228.421,144.837,230.838,146.395,230.838L146.395,230.838z"/>
					</g>
				</g>
			</g>
			<g>
				<g>
					<g>
						<path style="fill:#C6372C;" d="M145.589,259.036c6.714,0,13.428,0,20.142,0c1.555,0,1.558-2.417,0-2.417
							c-6.714,0-13.428,0-20.142,0C144.034,256.619,144.032,259.036,145.589,259.036L145.589,259.036z"/>
					</g>
				</g>
			</g>
			<g>
				<g>
					<g>
						<path style="fill:#C6372C;" d="M146.395,284.011c7.251,0,14.502,0,21.753,0c1.555,0,1.558-2.417,0-2.417
							c-7.251,0-14.502,0-21.753,0C144.84,281.594,144.837,284.011,146.395,284.011L146.395,284.011z"/>
					</g>
				</g>
			</g>
			<g>
				<g>
					<g>
						<path style="fill:#C6372C;" d="M143.173,312.209c14.502,0,29.004,0,43.506,0c1.555,0,1.558-2.417,0-2.417
							c-14.502,0-29.004,0-43.506,0C141.617,309.792,141.615,312.209,143.173,312.209L143.173,312.209z"/>
					</g>
				</g>
			</g>
			<g>
				<g>
					<g>
						<path style="fill:#C6372C;" d="M150.423,337.185c14.233,0,28.467,0,42.7,0c1.555,0,1.558-2.417,0-2.417
							c-14.233,0-28.467,0-42.7,0C148.868,334.768,148.866,337.185,150.423,337.185L150.423,337.185z"/>
					</g>
				</g>
			</g>
			<g>
				<g>
					<g>
						<path style="fill:#C6372C;" d="M330.891,203.445c15.576,0,31.152,0,46.728,0c1.555,0,1.558-2.417,0-2.417
							c-15.576,0-31.152,0-46.728,0C329.336,201.028,329.334,203.445,330.891,203.445L330.891,203.445z"/>
					</g>
				</g>
			</g>
			<g>
				<g>
					<g>
						<path style="fill:#C6372C;" d="M343.782,227.615c12.622,0,25.244,0,37.866,0c1.555,0,1.558-2.417,0-2.417
							c-12.622,0-25.244,0-37.866,0C342.227,225.198,342.224,227.615,343.782,227.615L343.782,227.615z"/>
					</g>
				</g>
			</g>
			<g>
				<g>
					<g>
						<path style="fill:#C6372C;" d="M347.81,259.036c9.936,0,19.873,0,29.81,0c1.555,0,1.558-2.417,0-2.417
							c-9.937,0-19.873,0-29.81,0C346.255,256.619,346.253,259.036,347.81,259.036L347.81,259.036z"/>
					</g>
				</g>
			</g>
			<g>
				<g>
					<g>
						<path style="fill:#C6372C;" d="M347.81,286.428c9.131,0,18.262,0,27.392,0c1.555,0,1.558-2.417,0-2.417
							c-9.131,0-18.262,0-27.392,0C346.255,284.011,346.253,286.428,347.81,286.428L347.81,286.428z"/>
					</g>
				</g>
			</g>
			<g>
				<g>
					<g>
						<path style="fill:#C6372C;" d="M338.142,310.598c13.965,0,27.93,0,41.894,0c1.555,0,1.558-2.417,0-2.417
							c-13.965,0-27.93,0-41.894,0C336.587,308.181,336.585,310.598,338.142,310.598L338.142,310.598z"/>
					</g>
				</g>
			</g>
			<g>
				<g>
					<g>
						<path style="fill:#C6372C;" d="M326.058,337.991c15.039,0,30.078,0,45.117,0c1.555,0,1.558-2.417,0-2.417
							c-15.039,0-30.078,0-45.117,0C324.502,335.573,324.5,337.991,326.058,337.991L326.058,337.991z"/>
					</g>
				</g>
			</g>
			<g>
				<g>
					<g>
						<path style="fill:#C6372C;" d="M139.144,182.901c87.011,0,174.023,0,261.034,0c3.11,0,3.116-4.834,0-4.834
							c-87.011,0-174.023,0-261.034,0C136.034,178.067,136.029,182.901,139.144,182.901L139.144,182.901z"/>
					</g>
				</g>
			</g>
			<g>
				<g>
					<g>
						<path style="fill:#C6372C;" d="M555.671,348.464c14.233,0,28.467,0,42.7,0c1.555,0,1.558-2.417,0-2.417
							c-14.233,0-28.467,0-42.7,0C554.116,346.047,554.113,348.464,555.671,348.464L555.671,348.464z"/>
					</g>
				</g>
			</g>
			<g>
				<g>
					<g>
						<path style="fill:#C6372C;" d="M562.116,328.725c12.353,0,24.707,0,37.06,0c1.037,0,1.039-1.611,0-1.611
							c-12.354,0-24.707,0-37.06,0C561.079,327.114,561.078,328.725,562.116,328.725L562.116,328.725z"/>
					</g>
				</g>
			</g>
			<g>
				<g>
					<g>
						<path style="fill:#C6372C;" d="M566.144,311.806c9.937,0,19.873,0,29.81,0c1.037,0,1.039-1.611,0-1.611
							c-9.937,0-19.873,0-29.81,0C565.108,310.195,565.106,311.806,566.144,311.806L566.144,311.806z"/>
					</g>
				</g>
			</g>
			<g>
				<g>
					<g>
						<path style="fill:#EFF8FF;" d="M516.193,186.929v89.428h-90.105c-2.449,0-4.431-1.982-4.431-4.431V191.36
							c0-2.449,1.982-4.431,4.431-4.431H516.193z"/>
					</g>
				</g>
				<g>
					<g>
						<path style="fill:#4B566B;" d="M441.67,232.223v44.134h-15.582c-2.449,0-4.431-1.982-4.431-4.431v-52.61h7.106
							C435.885,219.317,441.67,225.101,441.67,232.223z"/>
					</g>
				</g>
				<g>
					<g>
						<g>
							<path style="fill:#C6372C;" d="M414.68,180.484c35.718,0,71.435,0,107.153,0c2.074,0,2.077-3.223,0-3.223
								c-35.718,0-71.435,0-107.153,0C412.607,177.261,412.603,180.484,414.68,180.484L414.68,180.484z"/>
						</g>
					</g>
				</g>
				<g>
					<g>
						<path style="fill:#29628C;" d="M506.139,276.357h-22.204c-4.479-4.109-8.572-8.637-12.23-13.487
							c-1.144-1.531-2.256-3.11-3.013-4.882c-1.112-2.643-2.562-7.928-0.129-10.184c2.369-2.224,5.317-1.434,7.605,0.226
							c6.123,4.431,11.618,9.636,16.903,15.018C497.422,267.495,501.788,271.926,506.139,276.357z"/>
					</g>
				</g>
				<g>
					<g>
						<path style="fill:#356EA1;" d="M482.871,276.357h-51.176c-0.5-6.332-0.902-12.665-0.741-19.014
							c0.048-2.175,0.17-4.402,1.047-6.381c1.386-3.126,3.658-4.521,3.658-4.521c2.166-0.689,11.649-3.96,11.649-3.96
							c4.802,0.113,12.504,1.053,16.822,2.89c3.239,1.386,4.286-0.258,7.751,0.371c1.257,0.226,4.963,3.126,5.881,4.012
							c0.612,0.58,0.951,1.386,1.257,2.159c2.385,6.349,2.868,13.213,3.448,19.964C482.597,273.376,482.726,274.859,482.871,276.357
							z"/>
					</g>
				</g>
				<g>
					<g>
						<path style="fill:#ED9580;" d="M450.33,240.879c-0.702,0.601-3.02,1.603-3.02,1.603c1.74,1.926,8.501,8.071,12.683,9.552
							c4.182,1.48,11.89-1.055,11.89-6.291l-4.515-1.731c-0.456-0.706-0.657-1.541-0.851-2.359
							c-0.624-2.632-1.248-5.264-1.872-7.896c-0.098-0.413-0.21-0.852-0.518-1.143c-0.293-0.277-0.709-0.371-1.103-0.453
							c-3.508-0.737-7.509-3.248-11.06-3.447C451.447,232.216,453.385,238.491,450.33,240.879z"/>
					</g>
				</g>
				<g>
					<g>
						<path style="fill:#F6A993;" d="M457.574,238.166c3.55,3.552,9.373,5.875,13.536,3.067c1.747-1.178,2.174-2.678,2.987-4.622
							c1.657-3.964,2.472-19.884,1.008-23.633c-5.029-12.876-20.947-6.477-23.807,3.126
							C449.122,223.408,452.503,233.092,457.574,238.166z"/>
					</g>
				</g>
				<g>
					<g>
						<g>
							<path style="fill:#BBCFF5;" d="M451.181,223.048c1.757,1.142,3.567,2.206,5.349,3.311c1.558,0.966,3.112,2.263,4.854,2.847
								c0.258,0.087,0.414-0.252,0.251-0.431c-1.23-1.351-3.114-2.225-4.668-3.164c-1.792-1.083-3.603-2.157-5.481-3.084
								C451.138,222.355,450.853,222.835,451.181,223.048L451.181,223.048z"/>
						</g>
					</g>
				</g>
				<g>
					<g>
						<g>
							<path style="fill:#BBCFF5;" d="M451.858,229.276c1.136,2.13,2.393,4.191,3.826,6.137c1.065,1.447,2.22,3.256,3.779,4.178
								c0.234,0.139,0.483-0.133,0.362-0.362c-0.927-1.737-2.638-3.223-3.82-4.81c-1.304-1.751-2.49-3.585-3.657-5.428
								C452.152,228.682,451.686,228.954,451.858,229.276L451.858,229.276z"/>
						</g>
					</g>
				</g>
				<g>
					<g>
						<path style="fill:#4B566B;" d="M452.143,224.915c0,0,4.23-8.177,5.438-9.385s-7.855-1.208-7.855-1.208l-3.424,4.996
							c0,0-1.007,8.297,4.721,12.326l2.606,1.005L452.143,224.915z"/>
					</g>
				</g>
				<g>
					<g>
						<path style="fill:#356EA1;" d="M446.302,219.318h42.003c0.885,0,1.081-1.244,0.238-1.513
							c-3.212-1.022-10.349-1.803-12.536-2.678c0,0-0.029-12.354-12.691-12.354C443.55,202.774,446.302,219.318,446.302,219.318z"/>
					</g>
				</g>
				<g>
					<g>
						<path style="fill:#F6A993;" d="M453.347,224.391c-0.564-2.409-2.72-3.577-4.479-2.142c-0.797,1.007-0.907,2.55-0.102,4.354
							c0.804,1.804,2.42,3.38,4.387,3.562C453.512,230.2,453.347,224.391,453.347,224.391z"/>
					</g>
				</g>
				<g>
					<g>
						<path style="fill:#4B566B;" d="M516.193,240.892v26.2l-2.159,9.265h-6.413l8.008-34.289
							C515.726,241.633,515.936,241.231,516.193,240.892z"/>
					</g>
				</g>
				<g>
					<g>
						<path style="fill:#F6A993;" d="M516.193,255.797v14.824c-1.756-0.274-3.754-0.532-6.026,0.387
							c-0.435,0.177-4.818,2.53-5.253,2.32c-0.306-0.145-3.738-6.558-4.834-8.443c2.32-1.337,7.912-2.433,8.83-5.172
							c0.371-0.822,0.629-1.74,1.225-2.433c0.58-0.709,1.643-1.128,2.417-0.644c0.242,0.145,0.435,0.371,0.709,0.5
							c0.419,0.177,0.902,0.032,1.305-0.177C515.13,256.651,515.678,256.232,516.193,255.797z"/>
					</g>
				</g>
				<g>
					<g>
						<path style="fill:#3F7FAF;" d="M430.919,259.42c0.667,6.116,5.216,8.342,9.744,12.507
							c4.927,4.532,22.175,14.365,26.068,16.435c2.423,1.289,17.842-4.812,21.063-6.365c8.151-3.929,16.237-6.813,24.388-10.742
							c-0.463-3.956-2.635-8.996-5.656-11.01c-10.717,4.714-35.496,10.423-35.972,10.064c-6.753-5.092-13.53-10.205-19.514-16.181
							c-2.212-2.209-6.637-6.255-9.571-7.335C430.516,242.758,430.605,256.545,430.919,259.42z"/>
					</g>
				</g>
				<g>
					<g>
						<g>
							<path style="fill:#DD8372;" d="M467.695,223.589c-0.04,1.219,0.165,2.395,0.726,3.487c0.196,0.381,0.795,0.916,0.896,1.31
								c0.167,0.651-1.132,1.316-1.586,1.77c-0.652,0.652,0.213,1.871,1.014,1.315c0.927-0.644,2.686-1.713,2.386-3.069
								c-0.15-0.677-0.773-1.157-1.162-1.694c-0.669-0.925-1.046-1.99-1.167-3.119C468.729,222.894,467.719,222.861,467.695,223.589
								L467.695,223.589z"/>
						</g>
					</g>
				</g>
				<g>
					<g>
						<g>
							<path style="fill:#DD8372;" d="M464.632,234.861c1.998,1.765,4.506,1.55,6.613,0.086c0.587-0.408,0.24-1.348-0.495-1.173
								c-0.871,0.206-1.538,0.849-2.42,1.041c-1.134,0.246-2.225,0.012-3.188-0.616
								C464.746,233.939,464.272,234.542,464.632,234.861L464.632,234.861z"/>
						</g>
					</g>
				</g>
				<g>
					<g>
						<g>
							<path style="fill:#DD8372;" d="M450.558,223.571c-2.674,0.217-0.683,4.75,1.292,4.838c0.297,0.013,0.461-0.39,0.245-0.591
								c-0.495-0.46-1.107-0.671-1.524-1.247c-0.344-0.476-1.104-2.196-0.013-2.333
								C450.973,224.186,450.993,223.536,450.558,223.571L450.558,223.571z"/>
						</g>
					</g>
				</g>
				<g>
					<g>
						<path style="fill:#4B566B;" d="M464.363,223.721c0,0.816-0.361,1.477-0.806,1.477c-0.445,0-0.806-0.661-0.806-1.477
							c0-0.816,0.361-1.477,0.806-1.477C464.002,222.244,464.363,222.905,464.363,223.721z"/>
					</g>
				</g>
				<g>
					<g>
						<path style="fill:#4B566B;" d="M473.493,223.721c0,0.816-0.361,1.477-0.806,1.477c-0.445,0-0.806-0.661-0.806-1.477
							c0-0.816,0.361-1.477,0.806-1.477C473.133,222.244,473.493,222.905,473.493,223.721z"/>
					</g>
				</g>
				<g>
					<g>
						<g>
							<path style="fill:#4B566B;" d="M461.276,221.275c0.641-0.395,1.38-0.665,2.137-0.707c0.573-0.032,1.118,0.21,1.645-0.049
								c0.143-0.07,0.214-0.308,0.115-0.439c-0.454-0.602-1.323-0.496-2.004-0.385c-0.874,0.142-1.601,0.522-2.26,1.107
								C460.653,221.029,460.986,221.455,461.276,221.275L461.276,221.275z"/>
						</g>
					</g>
				</g>
				<g>
					<g>
						<g>
							<path style="fill:#4B566B;" d="M471.466,220.61c0.461-0.276,0.988-0.397,1.519-0.288c0.406,0.083,0.694,0.333,1.112,0.346
								c0.198,0.007,0.379-0.212,0.31-0.406c-0.447-1.259-2.486-0.914-3.315-0.293C470.719,220.247,471.045,220.862,471.466,220.61
								L471.466,220.61z"/>
						</g>
					</g>
				</g>
				<g>
					<g>
						<path style="fill:#BBCFF5;" d="M458.79,227.169v12.088c0,0,7.855,7.461,14.703,1.636c0,0,3.323-4.919,2.149-13.723
							C475.642,227.169,469.315,226.406,458.79,227.169z"/>
					</g>
				</g>
			</g>
		</g>
		<g>
			<g>
				
					<ellipse transform="matrix(0.7071 -0.7071 0.7071 0.7071 -57.9799 133.1242)" style="fill:#FFFFFF;" cx="131.705" cy="136.55" rx="92.941" ry="92.941"/>
			</g>
			<g>
				<path style="fill:#F4BE53;" d="M220.186,136.543c0,36.746-22.405,68.269-54.305,81.636c-0.338,0.139-0.675,0.278-1.013,0.407
					c-7.836,3.188-16.238,5.264-25.007,6.058c-0.328,0.03-0.665,0.06-1.003,0.089c-2.354,0.189-4.737,0.288-7.151,0.288
					c-48.863,0-88.469-39.617-88.469-88.479c0-48.863,39.607-88.469,88.469-88.469C180.569,48.073,220.186,87.68,220.186,136.543z"
					/>
			</g>
			<g>
				<g>
					<path style="fill:#FFFFFF;" d="M167.312,67.266H96.098c-2.652,0-4.802,2.15-4.802,4.802v123.167
						c0,2.652,2.15,4.802,4.802,4.802h71.214c2.652,0,4.802-2.15,4.802-4.802V72.068C172.114,69.416,169.964,67.266,167.312,67.266z
						"/>
				</g>
				<g>
					<rect x="95.046" y="83.259" style="fill:#E64B37;" width="73.318" height="100.785"/>
				</g>
				<g>
					<path style="fill:#86B8ED;" d="M134.994,191.985c0,2.635-2.136,4.772-4.772,4.772c-2.635,0-4.772-2.136-4.772-4.772
						s2.136-4.772,4.772-4.772C132.857,187.213,134.994,189.349,134.994,191.985z"/>
				</g>
				<g>
					<g>
						<path style="fill:#86B8ED;" d="M139.353,75.263h-15.296c-0.917,0-1.66,0.743-1.66,1.66s0.743,1.66,1.66,1.66h15.296
							c0.917,0,1.66-0.743,1.66-1.66S140.27,75.263,139.353,75.263z"/>
					</g>
					<g>
						<path style="fill:#86B8ED;" d="M147.969,76.923c0,1.083-0.878,1.961-1.961,1.961c-1.083,0-1.961-0.878-1.961-1.961
							c0-1.083,0.878-1.961,1.961-1.961C147.091,74.961,147.969,75.839,147.969,76.923z"/>
					</g>
				</g>
				<g>
					<g>
						<g>
							<circle style="fill:#FFFFFF;" cx="131.073" cy="137.75" r="27.713"/>
						</g>
					</g>
					<g>
						<g>
							
								<ellipse transform="matrix(0.7071 -0.7071 0.7071 0.7071 -59.0133 133.0288)" style="fill:#EDAF1C;" cx="131.073" cy="137.75" rx="25.815" ry="25.815"/>
						</g>
					</g>
					<g>
						<g>
							<circle style="fill:#FFEC7F;" cx="131.073" cy="137.75" r="22.144"/>
						</g>
					</g>
					<g>
						<g>
							<g>
								<path style="fill:#D6971A;" d="M130.403,112.354c-0.352,1.853-0.221,3.806-0.226,5.685
									c-0.005,2.111-0.012,4.223-0.016,6.335c-0.007,4.223,0.063,8.446,0.06,12.669c-0.007,8.421-0.36,16.929,0.096,25.338
									c0.02,0.364,0.547,0.365,0.566,0c0.455-8.409,0.103-16.917,0.096-25.338c-0.003-4.106,0.066-8.211,0.061-12.317
									c-0.003-2.112-0.01-4.223-0.016-6.335c-0.005-1.99,0.146-4.075-0.227-6.037C130.759,112.16,130.44,112.159,130.403,112.354
									L130.403,112.354z"/>
							</g>
						</g>
					</g>
					<g>
						<g>
							<g>
								<path style="fill:#D6971A;" d="M107.087,137.611c3.942,0.494,8.108,0.142,12.079,0.142c4.145,0,8.289,0.001,12.434,0.001
									c4.026,0,8.052,0.001,12.079,0.001c4.107,0,8.347,0.293,12.434-0.124c0.305-0.031,0.305-0.444,0-0.475
									c-3.973-0.405-8.086-0.124-12.079-0.124c-4.145,0-8.289,0.001-12.434,0.001c-4.026,0-8.052,0.001-12.079,0.001
									c-4.084,0-8.38-0.366-12.434,0.142C106.809,137.213,106.809,137.576,107.087,137.611L107.087,137.611z"/>
							</g>
						</g>
					</g>
					<g>
						<g>
							<g>
								<path style="fill:#D6971A;" d="M148.457,118.843c-1.559,1.061-2.846,2.534-4.178,3.859c-1.497,1.489-2.995,2.978-4.49,4.468
									c-2.992,2.981-5.927,6.017-8.916,9.001c-5.959,5.95-12.225,11.717-17.849,17.984c-0.244,0.272,0.128,0.644,0.4,0.4
									c6.268-5.624,12.035-11.89,17.984-17.849c2.901-2.906,5.853-5.76,8.753-8.667c1.491-1.495,2.979-2.994,4.468-4.49
									c1.402-1.409,2.984-2.777,4.107-4.427C148.85,118.956,148.624,118.73,148.457,118.843L148.457,118.843z"/>
							</g>
						</g>
					</g>
					<g>
						<g>
							<g>
								<path style="fill:#D6971A;" d="M114.114,120.215c2.472,3.183,5.718,5.919,8.566,8.767c2.889,2.889,5.777,5.778,8.666,8.667
									c2.806,2.807,5.612,5.613,8.418,8.42c2.945,2.945,5.773,6.195,9.002,8.827c0.238,0.194,0.529-0.098,0.336-0.336
									c-2.559-3.14-5.715-5.891-8.579-8.754c-2.889-2.889-5.778-5.777-8.667-8.666c-2.807-2.806-5.613-5.612-8.42-8.418
									c-2.928-2.928-5.743-6.272-9.015-8.813C114.198,119.737,113.941,119.993,114.114,120.215L114.114,120.215z"/>
							</g>
						</g>
					</g>
					<g>
						<g>
							<path style="fill:#E94B46;" d="M122.246,131.139c0,1.665-1.35,3.015-3.015,3.015c-1.665,0-3.015-1.35-3.015-3.015
								c0-1.665,1.35-3.015,3.015-3.015C120.897,128.124,122.246,129.474,122.246,131.139z"/>
						</g>
					</g>
					<g>
						<g>
							<circle style="fill:#E94B46;" cx="126.114" cy="125.394" r="3.015"/>
						</g>
					</g>
					<g>
						<g>
							<circle style="fill:#E94B46;" cx="117.795" cy="142.226" r="2.843"/>
						</g>
					</g>
					<g>
						<g>
							<circle style="fill:#E94B46;" cx="135.749" cy="148.999" r="3.197"/>
						</g>
					</g>
					<g>
						<g>
							<path style="fill:#E94B46;" d="M127.402,151.219c0,1.766-1.431,3.197-3.197,3.197s-3.197-1.431-3.197-3.197
								c0-1.766,1.431-3.197,3.197-3.197S127.402,149.454,127.402,151.219z"/>
						</g>
					</g>
					<g>
						<g>
							<path style="fill:#E94B46;" d="M147.064,141.3c0,1.571-1.273,2.844-2.844,2.844c-1.571,0-2.844-1.273-2.844-2.844
								c0-1.571,1.273-2.844,2.844-2.844C145.79,138.456,147.064,139.729,147.064,141.3z"/>
						</g>
					</g>
					<g>
						<g>
							<path style="fill:#E94B46;" d="M139.569,125.394c0,1.766-1.431,3.197-3.197,3.197s-3.197-1.432-3.197-3.197
								s1.432-3.197,3.197-3.197S139.569,123.629,139.569,125.394z"/>
						</g>
					</g>
					<g>
						<g>
							<circle style="fill:#E94B46;" cx="144.788" cy="131.01" r="3.197"/>
						</g>
					</g>
					<g>
						<g>
							<g>
								<path style="fill:#85B23B;" d="M113.429,131.194c-0.298,0.867,0.046,1.815,0.711,2.419c0.537,0.488,1.898,1.154,2.402,0.294
									c0.096-0.163,0.083-0.43-0.072-0.56c-0.428-0.358-1.044-0.187-1.502-0.561c-0.445-0.363-0.652-0.898-0.598-1.464
									C114.424,130.757,113.594,130.712,113.429,131.194L113.429,131.194z"/>
							</g>
						</g>
					</g>
					<g>
						<g>
							<g>
								<path style="fill:#85B23B;" d="M139.59,135.301c0.575-0.338,0.987,0.143,1.347,0.533c0.266,0.287,0.785,0.066,0.775-0.321
									c-0.031-1.199-1.711-1.582-2.559-0.96C138.714,134.876,139.098,135.59,139.59,135.301L139.59,135.301z"/>
							</g>
						</g>
					</g>
					<g>
						<g>
							<g>
								<path style="fill:#85B23B;" d="M119.454,154.912c0.575-0.338,0.987,0.143,1.347,0.533c0.265,0.288,0.785,0.066,0.775-0.321
									c-0.032-1.199-1.711-1.583-2.559-0.96C118.578,154.486,118.962,155.201,119.454,154.912L119.454,154.912z"/>
							</g>
						</g>
					</g>
					<g>
						<g>
							<g>
								<path style="fill:#85B23B;" d="M126.837,119.355c0.076,0.653,0.432,1.216,1.019,1.532c0.513,0.277,1.544,0.487,1.779-0.238
									c0.064-0.196-0.047-0.384-0.201-0.494c-0.309-0.221-0.732,0-1.085-0.145c-0.345-0.141-0.576-0.41-0.653-0.773
									C127.595,118.765,126.779,118.861,126.837,119.355L126.837,119.355z"/>
							</g>
						</g>
					</g>
					<g>
						<g>
							<g>
								<path style="fill:#85B23B;" d="M141.945,151.024c-0.301-0.556,0.195-1.135,0.757-1.189c0.773-0.075,1.451,0.64,2.184,0.408
									c0.18-0.057,0.329-0.261,0.259-0.456c-0.227-0.63-0.983-0.858-1.595-0.984c-0.616-0.127-1.274-0.115-1.81,0.249
									c-0.758,0.514-1.248,1.782-0.404,2.442C141.668,151.752,142.169,151.437,141.945,151.024L141.945,151.024z"/>
							</g>
						</g>
					</g>
					<g>
						<g>
							<g>
								<path style="fill:#85B23B;" d="M115.629,147.311c-0.22,0.607,0.124,1.239,0.652,1.551c0.552,0.326,1.42,0.339,1.627-0.395
									c0.062-0.219-0.12-0.528-0.377-0.495c-0.249,0.032-0.501,0.096-0.699,0.014c-0.159-0.065-0.388-0.245-0.352-0.44
									C116.585,146.987,115.824,146.775,115.629,147.311L115.629,147.311z"/>
							</g>
						</g>
					</g>
					<g>
						<g>
							<g>
								<path style="fill:#85B23B;" d="M126.32,145.701c0.483-0.299,0.94-0.122,1.463-0.089c0.239,0.015,0.414-0.29,0.28-0.489
									c-0.479-0.71-1.543-0.576-2.155-0.127C125.495,145.3,125.864,145.984,126.32,145.701L126.32,145.701z"/>
							</g>
						</g>
					</g>
					<g>
						<g>
							<g>
								<path style="fill:#85B23B;" d="M145.843,126.848c-0.013-0.199,0.101-0.469,0.345-0.446c0.255,0.024,0.337,0.373,0.505,0.52
									c0.211,0.184,0.527,0.163,0.68-0.088c0.46-0.752-0.559-1.505-1.244-1.449c-0.786,0.064-1.281,0.829-1.12,1.576
									C145.109,127.424,145.875,127.328,145.843,126.848L145.843,126.848z"/>
							</g>
						</g>
					</g>
					<g>
						<g>
							<g>
								<path style="fill:#85B23B;" d="M132.816,143.9c-0.013-0.199,0.101-0.47,0.345-0.447c0.255,0.024,0.337,0.373,0.505,0.52
									c0.212,0.184,0.527,0.163,0.68-0.088c0.46-0.752-0.559-1.505-1.244-1.449c-0.786,0.064-1.281,0.829-1.12,1.576
									C132.081,144.477,132.847,144.381,132.816,143.9L132.816,143.9z"/>
							</g>
						</g>
					</g>
					<g>
						<g>
							<g>
								<path style="fill:#85B23B;" d="M131.4,129.234c-0.405,0.585-0.314,1.45,0.223,1.925c0.487,0.431,1.772,0.669,1.964-0.207
									c0.048-0.219-0.064-0.474-0.299-0.527c-0.326-0.074-0.685,0.156-0.991-0.014c-0.264-0.146-0.305-0.504-0.171-0.752
									C132.388,129.178,131.706,128.793,131.4,129.234L131.4,129.234z"/>
							</g>
						</g>
					</g>
					<g>
						<g>
							<g>
								<path style="fill:#85B23B;" d="M117.025,126.144c-0.109-0.218-0.152-0.524,0.072-0.694c0.129-0.097,0.407-0.098,0.52,0.05
									c0.495,0.649,1.409-0.038,0.896-0.691c-0.502-0.64-1.542-0.737-2.15-0.198c-0.561,0.497-0.668,1.582-0.037,2.073
									C116.715,126.987,117.263,126.622,117.025,126.144L117.025,126.144z"/>
							</g>
						</g>
					</g>
					<g>
						<g>
							<g>
								<path style="fill:#85B23B;" d="M130.594,155.864c0.16-0.53-0.538-0.856-0.922-0.524c-0.541,0.467-0.053,1.257,0.414,1.552
									c0.968,0.612,2.599,0.169,2.61-1.128c0.004-0.437-0.542-0.523-0.768-0.208c-0.175,0.243-0.513,0.433-0.808,0.477
									c-0.145,0.021-0.313,0.019-0.45-0.04c-0.062-0.027-0.119-0.062-0.169-0.108c-0.046-0.042-0.539-0.693-0.554-0.108
									C129.938,156.154,130.488,156.214,130.594,155.864L130.594,155.864z"/>
							</g>
						</g>
					</g>
					<g>
						<g>
							<g>
								<path style="fill:#85B23B;" d="M136.742,139.17c-0.364,0.618-0.04,1.288,0.496,1.69c0.484,0.363,1.346,0.59,1.858,0.151
									c0.272-0.233,0.438-0.668,0.112-0.933c-0.265-0.216-0.558-0.059-0.846-0.023c-0.461,0.057-0.758-0.391-0.853-0.784
									C137.425,138.914,136.921,138.866,136.742,139.17L136.742,139.17z"/>
							</g>
						</g>
					</g>
					<g>
						<g>
							<g>
								<path style="fill:#EDAF1C;" d="M134.648,119.934c-0.021-0.038-0.042-0.076-0.062-0.114c-0.117-0.212-0.45-0.381-0.691-0.281
									c0.023-0.002,0.045-0.003,0.068-0.004c-0.281,0.015-0.484,0.217-0.5,0.5c0.001-0.023,0.003-0.045,0.004-0.068
									c-0.1,0.241,0.066,0.573,0.281,0.691c0.038,0.021,0.076,0.042,0.114,0.063C134.369,120.998,134.927,120.441,134.648,119.934
									L134.648,119.934z"/>
							</g>
						</g>
					</g>
					<g>
						<g>
							<g>
								<path style="fill:#EDAF1C;" d="M136.364,156.434c-0.021-0.038-0.042-0.076-0.063-0.114c-0.117-0.212-0.45-0.381-0.691-0.281
									c0.023-0.001,0.045-0.003,0.068-0.004c-0.281,0.015-0.484,0.217-0.499,0.5c0.001-0.023,0.003-0.045,0.004-0.068
									c-0.1,0.241,0.066,0.572,0.281,0.691c0.038,0.021,0.076,0.042,0.114,0.062C136.084,157.498,136.643,156.941,136.364,156.434
									L136.364,156.434z"/>
							</g>
						</g>
					</g>
					<g>
						<g>
							<g>
								<path style="fill:#EDAF1C;" d="M122.429,121.502c0.723,0,0.725-1.124,0-1.124
									C121.705,120.378,121.704,121.502,122.429,121.502L122.429,121.502z"/>
							</g>
						</g>
					</g>
					<g>
						<g>
							<g>
								<path style="fill:#EDAF1C;" d="M122.79,136.009c0.282,0.17,0.565,0.338,0.845,0.51c0.254,0.155,0.605,0.055,0.753-0.197
									c0.135-0.231,0.078-0.636-0.197-0.753c-0.305-0.129-0.609-0.262-0.913-0.394c-0.239-0.103-0.518-0.071-0.661,0.173
									C122.484,135.577,122.566,135.874,122.79,136.009L122.79,136.009z"/>
							</g>
						</g>
					</g>
					<g>
						<g>
							<g>
								<path style="fill:#EDAF1C;" d="M113.407,139.311c0.194,0.203,0.372,0.357,0.622,0.489c0.406,0.214,0.835-0.214,0.621-0.621
									c-0.132-0.25-0.286-0.428-0.489-0.622c-0.208-0.199-0.547-0.207-0.754,0C113.2,138.765,113.208,139.102,113.407,139.311
									L113.407,139.311z"/>
							</g>
						</g>
					</g>
					<g>
						<g>
							<g>
								<path style="fill:#EDAF1C;" d="M125.377,141.017c0.398,0.265,0.819,0.649,1.294,0.741c0.436,0.084,0.691-0.382,0.417-0.717
									c-0.305-0.373-0.846-0.562-1.266-0.786C125.318,139.987,124.905,140.703,125.377,141.017L125.377,141.017z"/>
							</g>
						</g>
					</g>
					<g>
						<g>
							<g>
								<path style="fill:#EDAF1C;" d="M141.417,145.75c0.357,0.494,1.027,0.8,1.639,0.783c0.648-0.018,0.623-0.926,0-0.989
									c-0.217-0.022-0.414-0.029-0.624-0.096c-0.207-0.065-0.404-0.157-0.607-0.231
									C141.54,145.113,141.234,145.498,141.417,145.75L141.417,145.75z"/>
							</g>
						</g>
					</g>
					<g>
						<g>
							<g>
								<path style="fill:#EDAF1C;" d="M148.517,133.719c-0.124,0.58,0.207,1.216,0.81,1.356c0.299,0.069,0.615,0.016,0.876-0.144
									c0.337-0.206,0.444-0.532,0.385-0.906c-0.042-0.268-0.447-0.438-0.665-0.271c-0.098,0.075-0.204,0.136-0.301,0.214
									c-0.051,0.041-0.074,0.096-0.132,0.089c0.042,0.005-0.042-0.025-0.064-0.049c-0.045-0.051-0.047-0.101-0.043-0.171
									C149.409,133.343,148.621,133.23,148.517,133.719L148.517,133.719z"/>
							</g>
						</g>
					</g>
					<g>
						<g>
							<g>
								<path style="fill:#EDAF1C;" d="M149.064,145.179c0.58,0.122,1.215-0.209,1.354-0.813c0.069-0.299,0.015-0.615-0.145-0.876
									c-0.207-0.336-0.532-0.445-0.907-0.384c-0.267,0.043-0.439,0.447-0.271,0.665c0.075,0.098,0.136,0.204,0.214,0.3
									c0.041,0.051,0.096,0.072,0.09,0.131c0.004-0.042-0.022,0.042-0.047,0.065c-0.051,0.046-0.1,0.049-0.17,0.045
									C148.689,144.288,148.575,145.076,149.064,145.179L149.064,145.179z"/>
							</g>
						</g>
					</g>
					<g>
						<g>
							<g>
								<path style="fill:#EDAF1C;" d="M135.656,133.007c0.334,0.674,1.36,1.367,2.061,0.823c0.249-0.193,0.13-0.586-0.094-0.729
									c-0.221-0.142-0.486-0.098-0.721-0.2c-0.18-0.078-0.315-0.215-0.412-0.381C136.173,131.978,135.382,132.454,135.656,133.007
									L135.656,133.007z"/>
							</g>
						</g>
					</g>
					<g>
						<g>
							<g>
								<path style="fill:#EDAF1C;" d="M138.178,154.803c0.282,0.023,0.593,0.079,0.874,0.043c0.277-0.036,0.517-0.212,0.517-0.517
									c0-0.309-0.239-0.481-0.517-0.517c-0.281-0.036-0.593,0.019-0.874,0.043C137.569,153.904,137.567,154.752,138.178,154.803
									L138.178,154.803z"/>
							</g>
						</g>
					</g>
					<g>
						<g>
							<g>
								<path style="fill:#EDAF1C;" d="M128.55,152.351c0.098,0.106,0.193,0.219,0.297,0.319c0.2,0.192,0.379,0.251,0.656,0.205
									c0.156-0.026,0.328-0.198,0.354-0.354c0.045-0.27-0.012-0.454-0.205-0.655c-0.1-0.104-0.213-0.199-0.319-0.297
									c-0.219-0.204-0.566-0.217-0.783,0C128.332,151.787,128.346,152.132,128.55,152.351L128.55,152.351z"/>
							</g>
						</g>
					</g>
					<g>
						<g>
							<g>
								<path style="fill:#EDAF1C;" d="M120.053,146.97c0.057,0.009,0.114,0.018,0.17,0.027c0.317,0.05,0.636-0.133,0.636-0.484
									c0-0.348-0.318-0.534-0.636-0.484c-0.057,0.009-0.113,0.018-0.17,0.027C119.6,146.126,119.599,146.899,120.053,146.97
									L120.053,146.97z"/>
							</g>
						</g>
					</g>
					<g>
						<g>
							<g>
								<path style="fill:#EDAF1C;" d="M111.927,144.025c-0.269,0.76,0.267,1.808,1.151,1.751c0.439-0.028,0.674-0.643,0.237-0.877
									c-0.243-0.13-0.543-0.353-0.489-0.627C112.941,143.682,112.128,143.457,111.927,144.025L111.927,144.025z"/>
							</g>
						</g>
					</g>
					<g>
						<g>
							<g>
								<path style="fill:#EDAF1C;" d="M138.614,120.329c0.248-0.114,0.55-0.139,0.814-0.077c0.28,0.066,0.511,0.27,0.789,0.321
									c0.285,0.052,0.506-0.164,0.451-0.451c-0.092-0.478-0.657-0.737-1.089-0.81c-0.496-0.084-0.975-0.002-1.394,0.283
									C137.729,119.906,138.12,120.556,138.614,120.329L138.614,120.329z"/>
							</g>
						</g>
					</g>
					<g>
						<g>
							<g>
								<path style="fill:#EDAF1C;" d="M128.462,129.941c0.254-0.12,0.483-0.243,0.579-0.525c0.06-0.177-0.07-0.363-0.236-0.415
									c-0.284-0.089-0.539,0.059-0.78,0.192c-0.205,0.113-0.271,0.394-0.155,0.592
									C127.996,130.002,128.25,130.041,128.462,129.941L128.462,129.941z"/>
							</g>
						</g>
					</g>
					<g>
						<g>
							<g>
								<path style="fill:#EDAF1C;" d="M113.823,129.206c0.254-0.12,0.483-0.243,0.579-0.525c0.06-0.177-0.07-0.363-0.236-0.415
									c-0.284-0.089-0.539,0.06-0.78,0.192c-0.205,0.112-0.271,0.395-0.155,0.592C113.357,129.267,113.61,129.306,113.823,129.206
									L113.823,129.206z"/>
							</g>
						</g>
					</g>
					<g>
						<g>
							<g>
								<path style="fill:#EDAF1C;" d="M124.679,119.498c0.135,0.017,0.271,0.033,0.406,0.05c0.273,0.033,0.508-0.257,0.508-0.508
									c0-0.249-0.234-0.541-0.508-0.508c-0.135,0.017-0.271,0.033-0.406,0.05c-0.245,0.03-0.458,0.189-0.458,0.458
									C124.221,119.312,124.432,119.467,124.679,119.498L124.679,119.498z"/>
							</g>
						</g>
					</g>
					<g>
						<g>
							<g>
								<path style="fill:#EDAF1C;" d="M150.675,139.633c0.023-0.035,0.053-0.063,0.088-0.086c-0.097,0.04-0.195,0.081-0.292,0.121
									c0.007-0.001,0.014-0.002,0.02-0.003c0.23-0.029,0.377-0.132,0.46-0.35c0.082-0.218,0.17-0.434,0.238-0.657
									c0.081-0.264-0.097-0.558-0.358-0.63c-0.274-0.075-0.549,0.092-0.63,0.358c-0.068,0.222-0.117,0.449-0.17,0.675
									c-0.037,0.157-0.007,0.353,0.123,0.464c0.008,0.007,0.017,0.014,0.025,0.021c-0.035-0.061-0.071-0.121-0.106-0.182
									c0.004,0.008,0.008,0.016,0.012,0.023C150.113,139.653,150.463,139.886,150.675,139.633L150.675,139.633z"/>
							</g>
						</g>
					</g>
					<g>
						<g>
							<g>
								<path style="fill:#EDAF1C;" d="M110.474,133.848c-0.027,0.014-0.053,0.03-0.077,0.049c0.066-0.018,0.133-0.036,0.199-0.054
									c-0.013,0.001-0.027,0.001-0.04,0.002c-0.157,0.008-0.348,0.084-0.418,0.24c-0.329,0.74,0.077,1.67,0.941,1.725
									c0.168,0.011,0.391-0.105,0.461-0.264c0.118-0.27,0.083-0.562-0.191-0.73c-0.054-0.033-0.113-0.067-0.168-0.099
									c-0.054-0.035-0.057-0.034-0.009,0.003c-0.026-0.022-0.049-0.046-0.072-0.071c0.091,0.102-0.073-0.14-0.015-0.02
									c-0.029-0.062-0.042-0.127-0.062-0.192c0.007,0.054,0.01,0.05,0.006-0.012c-0.014,0.075-0.011,0.043,0.011-0.096
									c0-0.153-0.072-0.257-0.165-0.37c0.034,0.128,0.068,0.256,0.102,0.384c0.003-0.032,0.009-0.064,0.018-0.095
									C111.063,133.951,110.748,133.69,110.474,133.848L110.474,133.848z"/>
							</g>
						</g>
					</g>
					<g>
						<g>
							<g>
								<path style="fill:#EDAF1C;" d="M143.336,123.802c0.198,0.109,0.393,0.227,0.597,0.324c0.108,0.051,0.229,0.125,0.344,0.153
									c0.189,0.047,0.361,0.01,0.532-0.071c0.199-0.094,0.264-0.349,0.222-0.545c-0.104-0.485-0.738-0.644-1.137-0.817
									c-0.274-0.119-0.594-0.081-0.758,0.199C142.988,123.299,143.073,123.657,143.336,123.802L143.336,123.802z"/>
							</g>
						</g>
					</g>
					<g>
						<g>
							<g>
								<path style="fill:#EDAF1C;" d="M146.313,147.337c0.242-0.098,0.482-0.156,0.744-0.143c0.293,0.014,0.553,0.175,0.821-0.032
									c0.211-0.162,0.281-0.377,0.164-0.626c-0.01-0.021-0.02-0.042-0.029-0.063c-0.082-0.175-0.285-0.252-0.463-0.266
									c-0.553-0.04-1.085,0.073-1.561,0.361C145.599,146.805,145.856,147.522,146.313,147.337L146.313,147.337z"/>
							</g>
						</g>
					</g>
				</g>
				<g>
					
						<text transform="matrix(1 0 0 1 114.2414 100.5132)" style="fill:#FFFFFF; font-family:'Quicksand-Bold'; font-size:10.1819px;">ORDER</text>
				</g>
			</g>
			<g>
				<g>
					<g>
						<path style="fill:#F6A993;" d="M166.096,169.546c-1.032-0.952-2.517-0.738-2.517-0.738s-0.13-2.158-1.517-2.92
							c-2.773-1.524-4.286-0.57-4.286-0.57s-0.365-1.312-1.26-2.331c-0.896-1.018-3.866-2.259-5.799,0.292v-10.757l-0.49-9.358
							c0-1.941-1.084-3.024-3.024-3.024c-1.941,0-2.871,1.685-2.871,3.626l-0.643,8.841v10.673c0,0,0.37,4.327-2.046,7.017
							c-1.316,1.465-5.374,5.125-3.613,12.711c1.761,7.586,3.193,11.932,3.193,11.932l21.511,0.392c0,0,4.059-16.107,4.118-17.744
							C166.937,175.278,168.029,171.328,166.096,169.546z"/>
					</g>
					<g>
						<g>
							<path style="fill:#EA8F7A;" d="M145.93,165.55c-0.195,0.73-0.108,1.42,0.252,2.087c0.31,0.575,0.899,1.239,1.603,1.234
								c0.318-0.002,0.429-0.366,0.243-0.588c-0.336-0.403-0.801-0.624-1.083-1.092c-0.277-0.461-0.399-1.019-0.37-1.553
								C146.594,165.264,146.024,165.196,145.93,165.55L145.93,165.55z"/>
						</g>
					</g>
					<g>
						<path style="fill:#FFC8BB;" d="M147.203,140.993c2.591-0.14,1.919,3.529,1.919,3.529s-2.184-0.414-3.529,0
							C145.593,144.523,145.107,141.107,147.203,140.993z"/>
					</g>
					<g>
						<g>
							<path style="fill:#EA8F7A;" d="M149.29,153.468c-0.743,0.06-1.485,0.116-2.23,0.148c-0.606,0.026-1.218,0.156-1.77-0.126
								c-0.173-0.089-0.173-0.37,0-0.459c0.552-0.282,1.164-0.152,1.77-0.126c0.745,0.032,1.487,0.089,2.23,0.148
								C149.556,153.076,149.556,153.447,149.29,153.468L149.29,153.468z"/>
						</g>
					</g>
					<g>
						<g>
							<path style="fill:#EA8F7A;" d="M148.281,154.693c-0.407,0.035-0.814,0.07-1.222,0.105c-0.37,0.032-0.744,0.101-1.111,0.035
								c-0.241-0.043-0.22-0.411,0-0.467c0.357-0.092,0.744-0.046,1.111-0.042c0.407,0.005,0.814,0.01,1.222,0.015
								C148.513,154.342,148.506,154.674,148.281,154.693L148.281,154.693z"/>
						</g>
					</g>
					<g>
						<g>
							<path style="fill:#EA8F7A;" d="M148.504,152.616c-0.765,0.106-1.93,0.312-2.597-0.178c-0.133-0.098-0.138-0.333,0.049-0.378
								c0.367-0.088,0.7,0.001,1.067,0.052c0.474,0.066,0.947,0.1,1.426,0.098C148.674,152.208,148.741,152.583,148.504,152.616
								L148.504,152.616z"/>
						</g>
					</g>
					<g>
						<g>
							<path style="fill:#EA8F7A;" d="M155.728,166.859c0.333,0.747,0.201,1.515-0.3,2.158c-0.468,0.6-1.382,1.28-2.179,1.225
								c-0.342-0.024-0.479-0.389-0.267-0.646c0.357-0.433,0.959-0.558,1.402-0.886c0.489-0.361,0.847-0.954,0.686-1.574
								C154.971,166.757,155.556,166.474,155.728,166.859L155.728,166.859z"/>
						</g>
					</g>
					<g>
						<g>
							<path style="fill:#EA8F7A;" d="M161.456,169.252c0.268,0.616,0.234,1.261-0.078,1.858c-0.283,0.541-0.912,1.173-1.574,0.897
								c-0.218-0.091-0.299-0.325-0.136-0.513c0.269-0.311,0.668-0.448,0.927-0.768c0.28-0.345,0.391-0.803,0.298-1.237
								C160.826,169.17,161.31,168.915,161.456,169.252L161.456,169.252z"/>
						</g>
					</g>
					<g>
						<g>
							<path style="fill:#EA8F7A;" d="M165.607,171.844c0.383,0.634,0.388,1.484-0.188,1.997c-0.278,0.247-0.679-0.06-0.51-0.394
								c0.194-0.385,0.323-0.865,0.137-1.275C164.876,171.798,165.386,171.479,165.607,171.844L165.607,171.844z"/>
						</g>
					</g>
					<g>
						<g>
							<path style="fill:#EA8F7A;" d="M144.064,168.479c-0.146,1.181-0.54,2.29-1.028,3.373c-0.512,1.137-1.052,2.488-1.94,3.383
								c-0.206,0.207-0.577-0.003-0.494-0.287c0.3-1.028,0.98-1.944,1.456-2.899c0.587-1.177,1.069-2.387,1.46-3.643
								C143.607,168.122,144.104,168.155,144.064,168.479L144.064,168.479z"/>
						</g>
					</g>
				</g>
				<g>
					<path style="fill:#3F7FAF;" d="M164.868,193.708v24.878c-7.836,3.188-16.238,5.264-25.007,6.058v-30.937H164.868z"/>
				</g>
			</g>
		</g>
		<g>
			<g>
				<circle style="fill:#FFFFFF;" cx="601.798" cy="137.372" r="104.132"/>
			</g>
			<g>
				<path style="fill:#BBCFF5;" d="M700.93,137.372c0,41.171-25.103,76.489-60.844,91.466c-1.992,0.835-4.006,1.602-6.053,2.315
					c-0.612,0.211-1.224,0.412-1.847,0.612c-2.092,0.668-4.217,1.28-6.376,1.803c-5.185,1.302-10.526,2.181-16.001,2.615
					c-2.637,0.211-5.308,0.323-8.012,0.323c-8.946,0-17.625-1.191-25.871-3.416c-0.746-0.2-1.491-0.412-2.225-0.634
					c-2.426-0.712-4.818-1.524-7.166-2.415c-37.343-14.21-63.859-50.34-63.859-92.668c0-54.746,44.376-99.122,99.122-99.122
					C656.543,38.25,700.93,82.626,700.93,137.372z"/>
			</g>
			<g>
				<g>
					<rect x="578.366" y="88.41" style="fill:#FFFFFF;" width="75.013" height="47.957"/>
				</g>
				<g>
					<rect x="608.475" y="98.022" style="fill:#3F7FAF;" width="15.314" height="38.345"/>
				</g>
				<g>
					<path style="fill:#FFFFFF;" d="M620.618,117.195c0,0.826-0.669,1.495-1.495,1.495c-0.826,0-1.495-0.67-1.495-1.495
						s0.669-1.495,1.495-1.495C619.949,115.7,620.618,116.369,620.618,117.195z"/>
				</g>
				<g>
					<rect x="626.385" y="98.022" style="fill:#BBCFF5;" width="15.054" height="23.361"/>
				</g>
				<g>
					<rect x="590.566" y="98.022" style="fill:#BBCFF5;" width="15.054" height="23.361"/>
				</g>
				<g>
					<rect x="574.733" y="81.113" style="fill:#3F7FAF;" width="82.28" height="7.297"/>
				</g>
				<g>
					<rect x="653.379" y="93.091" style="fill:#67A4C9;" width="20.67" height="43.277"/>
				</g>
				<g>
					<polygon style="fill:#67A4C9;" points="641.439,65.577 590.306,65.577 574.733,81.113 657.013,81.113 					"/>
				</g>
				<g>
					<rect x="600.688" y="54.676" style="fill:#FFFFFF;" width="4.932" height="10.901"/>
				</g>
				<g>
					<rect x="572.82" y="136.367" style="fill:#A0BCEA;" width="106.775" height="8.376"/>
				</g>
			</g>
			<g>
				<path style="fill:#E64B37;" d="M571.57,119.809c0.912,4.7,4.973,10.163,4.161,14.881c-0.558,3.245-3.837,4.89-4.531,8.109
					c-1.545,7.159,5.452,13.445,6.133,20.736c0.197,2.11-0.142,4.296,0.497,6.317c1.47,4.656,7.169,6.275,12.028,6.749
					c8.057,0.786,17.61-0.353,21.801-7.279c5.572-9.209-2.34-21.113-0.26-31.674c0.318-1.616,1.329-5.239-3.745-7.671
					c-7.102-3.405,2.736-11.097-3.026-22.041c-5.126-9.738-15.092-9.121-22.208-6.747
					C574.956,103.678,570.184,112.67,571.57,119.809z"/>
			</g>
			<g>
				<path style="fill:#4B566B;" d="M625.81,233.568c-5.185,1.302-10.526,2.181-16.001,2.615c-2.637,0.211-5.308,0.323-8.012,0.323
					c-8.946,0-17.625-1.191-25.871-3.416c-0.746-0.2-1.491-0.412-2.225-0.634c-2.426-0.712-4.818-1.524-7.166-2.415
					c0.467-5.375,1.135-11.15,2.059-17.348c0.979-6.532,53.4-0.022,53.4-0.022C623.807,219.258,625.02,226.469,625.81,233.568z"/>
			</g>
			<g>
				<g>
					<path style="fill:#F6A993;" d="M673.15,154.441c-0.16-1.046-1.076-1.786-1.924-2.419c-1.52-1.134-3.041-2.268-4.561-3.401
						c-0.526-0.392-1.101-0.801-1.756-0.803c-1.044-0.004-1.779,0.986-2.333,1.871c-1.281,2.044-2.561,4.088-3.842,6.131
						l-0.653,0.305c-1.323,0.174-2.405,1.404-2.477,2.736c-0.072,1.333,0.822,2.641,2.066,3.125
						c1.572,0.612,3.356-0.028,4.788-0.919c1.432-0.89,2.73-2.045,4.323-2.6c1.311-0.457,2.746-0.478,4.048-0.961
						C672.132,157.023,673.36,155.813,673.15,154.441z"/>
				</g>
				<g>
					<path style="fill:#F6A993;" d="M544.873,80.802c0.591-2.694,1.072-3.648,0.608-3.952c-1.824-0.76-2.736,4.56-3.594,3.953
						c-1.14-3.192-1.499-9.515-2.715-9.515c-0.684,0,0.562,6.703-0.679,6.878c-0.917-0.1-3.957-7.472-5.021-6.878
						c-0.608,0.546,3.362,7.538,2.508,8.07c-0.718,0.228-5.092-6.688-6.004-5.7c-0.456,0.608,4.75,7.22,3.572,7.601
						c-1.82-1.584-4.18-3.724-5.32-2.736c0,0.836,3.116,2.736,4.484,4.332c0.596,0.695,1.675,3.091,2.273,3.785
						c0.594,0.689,1.278,1.421,1.528,2.296c0.625,2.194,0.238,3.872,0.863,6.065c0.087,0.32,5.091-0.442,5.445-0.441
						c0.165-2.598-0.421-5.813,0.532-9.576C543.8,83.217,544.664,81.757,544.873,80.802z"/>
				</g>
				<g>
					<path style="fill:#3F7FAF;" d="M549.164,124.707c-0.82-1.757-4.891-28.62-5.488-36.427c-2.805-0.011-5.609-0.023-8.414-0.034
						c1.168,7.782-0.896,36.524,3.845,42.805c7.146,9.468,26.865,24.547,28.084,29.776c2.472,10.602,6.276,17.613,6.235,25.032
						c-0.066,11.86-1.52,15.446-4.828,26.836c15.033,8.576,37.325,5.465,53.394-0.025c-2.325-6.713-8.566-18.571-6.957-29.884
						c1.487-10.459,1.412-19.525,1.412-19.525c2.272,0.941,15.679,15.359,17.807,15.207c7.652-3.101,24.115-12.329,30.133-17.481
						c1.683-1.441-3.075-6.992-5.388-7.382c-5.986,3.15-20.746,9.967-22.048,9.74c-1.209-0.211-13.864-14.036-20.483-19.19
						c-2.346-1.827-9.135-2.048-11.23-1.666c-8.362,1.524-23.854,1.642-31.861-1.81C563.874,136.58,549.872,126.223,549.164,124.707
						z"/>
				</g>
				<g>
					<g>
						<path style="fill:#FFFFFF;" d="M674.985,139.807h-8.852c-1.065,0-1.928,0.814-1.928,1.817v20.071
							c0,1.004,0.863,1.817,1.928,1.817h8.852c1.065,0,1.928-0.814,1.928-1.817v-20.071
							C676.912,140.62,676.049,139.807,674.985,139.807z"/>
					</g>
					<g>
						<rect x="665.408" y="142.492" style="fill:#E64B37;" width="10.301" height="18.334"/>
					</g>
					<g>
						<g>
							<g>
								<path style="fill:#FFFFFF;" d="M674.901,151.853c0,2.426-1.967,4.393-4.393,4.393c-2.426,0-4.393-1.967-4.393-4.393
									c0-2.426,1.967-4.393,4.393-4.393C672.934,147.459,674.901,149.426,674.901,151.853z"/>
							</g>
						</g>
						<g>
							<g>
								<circle style="fill:#EDAF1C;" cx="670.508" cy="151.853" r="4.092"/>
							</g>
						</g>
						<g>
							<g>
								<path style="fill:#FFEC7F;" d="M674.018,151.853c0,1.939-1.572,3.51-3.51,3.51c-1.939,0-3.51-1.572-3.51-3.51
									c0-1.939,1.572-3.51,3.51-3.51C672.446,148.342,674.018,149.914,674.018,151.853z"/>
							</g>
						</g>
						<g>
							<g>
								<g>
									<path style="fill:#D6971A;" d="M670.401,147.827c-0.056,0.294-0.035,0.603-0.036,0.901
										c-0.001,0.335-0.002,0.669-0.003,1.004c-0.001,0.669,0.01,1.339,0.01,2.008c-0.001,1.335-0.057,2.684,0.015,4.017
										c0.003,0.058,0.087,0.058,0.09,0c0.072-1.333,0.016-2.682,0.015-4.017c0-0.651,0.01-1.302,0.01-1.953
										c0-0.335-0.002-0.67-0.003-1.004c-0.001-0.315,0.023-0.646-0.036-0.957C670.458,147.796,670.407,147.796,670.401,147.827
										L670.401,147.827z"/>
								</g>
							</g>
						</g>
						<g>
							<g>
								<g>
									<path style="fill:#D6971A;" d="M666.705,151.831c0.625,0.078,1.285,0.023,1.915,0.023c0.657,0,1.314,0,1.971,0
										c0.638,0,1.276,0,1.915,0c0.651,0,1.323,0.046,1.971-0.02c0.048-0.005,0.048-0.07,0-0.075
										c-0.63-0.064-1.282-0.02-1.915-0.02c-0.657,0-1.314,0-1.971,0c-0.638,0-1.277,0-1.915,0c-0.647,0-1.328-0.058-1.971,0.023
										C666.661,151.768,666.661,151.825,666.705,151.831L666.705,151.831z"/>
								</g>
							</g>
						</g>
						<g>
							<g>
								<g>
									<path style="fill:#D6971A;" d="M673.263,148.855c-0.247,0.168-0.451,0.402-0.662,0.612
										c-0.237,0.236-0.475,0.472-0.712,0.708c-0.474,0.473-0.94,0.954-1.413,1.427c-0.945,0.943-1.938,1.857-2.83,2.851
										c-0.039,0.043,0.02,0.102,0.063,0.064c0.994-0.892,1.908-1.885,2.851-2.83c0.46-0.461,0.928-0.913,1.388-1.374
										c0.236-0.237,0.472-0.475,0.708-0.712c0.222-0.223,0.473-0.44,0.651-0.702C673.326,148.873,673.29,148.837,673.263,148.855
										L673.263,148.855z"/>
								</g>
							</g>
						</g>
						<g>
							<g>
								<g>
									<path style="fill:#D6971A;" d="M667.819,149.073c0.392,0.505,0.906,0.938,1.358,1.39c0.458,0.458,0.916,0.916,1.374,1.374
										c0.445,0.445,0.89,0.89,1.334,1.335c0.467,0.467,0.915,0.982,1.427,1.399c0.038,0.031,0.084-0.016,0.053-0.053
										c-0.406-0.498-0.906-0.934-1.36-1.388c-0.458-0.458-0.916-0.916-1.374-1.374c-0.445-0.445-0.89-0.89-1.335-1.335
										c-0.464-0.464-0.91-0.994-1.429-1.397C667.832,148.997,667.792,149.038,667.819,149.073L667.819,149.073z"/>
								</g>
							</g>
						</g>
						<g>
							<g>
								<circle style="fill:#E94B46;" cx="668.63" cy="150.805" r="0.478"/>
							</g>
						</g>
						<g>
							<g>
								<path style="fill:#E94B46;" d="M670.199,149.894c0,0.264-0.214,0.478-0.478,0.478c-0.264,0-0.478-0.214-0.478-0.478
									c0-0.264,0.214-0.478,0.478-0.478C669.985,149.416,670.199,149.63,670.199,149.894z"/>
							</g>
						</g>
						<g>
							<g>
								<path style="fill:#E94B46;" d="M668.853,152.562c0,0.249-0.202,0.451-0.451,0.451c-0.249,0-0.451-0.202-0.451-0.451
									s0.202-0.451,0.451-0.451C668.652,152.111,668.853,152.313,668.853,152.562z"/>
							</g>
						</g>
						<g>
							<g>
								<path style="fill:#E94B46;" d="M671.756,153.636c0,0.28-0.227,0.507-0.507,0.507c-0.28,0-0.507-0.227-0.507-0.507
									c0-0.28,0.227-0.507,0.507-0.507C671.529,153.129,671.756,153.356,671.756,153.636z"/>
							</g>
						</g>
						<g>
							<g>
								<path style="fill:#E94B46;" d="M669.926,153.988c0,0.28-0.227,0.507-0.507,0.507c-0.28,0-0.507-0.227-0.507-0.507
									s0.227-0.507,0.507-0.507C669.699,153.481,669.926,153.708,669.926,153.988z"/>
							</g>
						</g>
						<g>
							<g>
								<path style="fill:#E94B46;" d="M673.042,152.415c0,0.249-0.202,0.451-0.451,0.451c-0.249,0-0.451-0.202-0.451-0.451
									c0-0.249,0.202-0.451,0.451-0.451C672.841,151.964,673.042,152.166,673.042,152.415z"/>
							</g>
						</g>
						<g>
							<g>
								<path style="fill:#E94B46;" d="M671.854,149.894c0,0.28-0.227,0.507-0.507,0.507s-0.507-0.227-0.507-0.507
									c0-0.28,0.227-0.507,0.507-0.507S671.854,149.614,671.854,149.894z"/>
							</g>
						</g>
						<g>
							<g>
								<path style="fill:#E94B46;" d="M673.189,150.784c0,0.28-0.227,0.507-0.507,0.507s-0.507-0.227-0.507-0.507
									c0-0.28,0.227-0.507,0.507-0.507S673.189,150.504,673.189,150.784z"/>
							</g>
						</g>
						<g>
							<g>
								<g>
									<path style="fill:#85B23B;" d="M667.71,150.813c-0.047,0.137,0.007,0.288,0.113,0.383c0.085,0.077,0.301,0.183,0.381,0.047
										c0.015-0.026,0.013-0.068-0.012-0.089c-0.068-0.057-0.165-0.03-0.238-0.089c-0.07-0.058-0.103-0.142-0.095-0.232
										C667.868,150.744,667.737,150.737,667.71,150.813L667.71,150.813z"/>
								</g>
							</g>
						</g>
						<g>
							<g>
								<g>
									<path style="fill:#85B23B;" d="M671.858,151.464c0.091-0.053,0.156,0.023,0.214,0.085c0.042,0.046,0.124,0.01,0.123-0.051
										c-0.005-0.19-0.271-0.251-0.406-0.152C671.719,151.397,671.78,151.51,671.858,151.464L671.858,151.464z"/>
								</g>
							</g>
						</g>
						<g>
							<g>
								<g>
									<path style="fill:#85B23B;" d="M668.666,154.573c0.091-0.053,0.156,0.023,0.214,0.085c0.042,0.046,0.124,0.01,0.123-0.051
										c-0.005-0.19-0.271-0.251-0.406-0.152C668.527,154.506,668.588,154.619,668.666,154.573L668.666,154.573z"/>
								</g>
							</g>
						</g>
						<g>
							<g>
								<g>
									<path style="fill:#85B23B;" d="M669.836,148.936c0.012,0.104,0.068,0.193,0.161,0.243c0.081,0.044,0.245,0.077,0.282-0.038
										c0.01-0.031-0.007-0.061-0.032-0.078c-0.049-0.035-0.116,0-0.172-0.023c-0.055-0.022-0.091-0.065-0.104-0.123
										C669.956,148.843,669.827,148.858,669.836,148.936L669.836,148.936z"/>
								</g>
							</g>
						</g>
						<g>
							<g>
								<g>
									<path style="fill:#85B23B;" d="M672.231,153.957c-0.048-0.088,0.031-0.18,0.12-0.189c0.123-0.012,0.23,0.101,0.346,0.065
										c0.029-0.009,0.052-0.041,0.041-0.072c-0.036-0.1-0.156-0.136-0.253-0.156c-0.098-0.02-0.202-0.018-0.287,0.039
										c-0.12,0.081-0.198,0.283-0.064,0.387C672.187,154.072,672.266,154.022,672.231,153.957L672.231,153.957z"/>
								</g>
							</g>
						</g>
						<g>
							<g>
								<g>
									<path style="fill:#85B23B;" d="M668.059,153.368c-0.035,0.096,0.02,0.196,0.103,0.246c0.088,0.052,0.225,0.054,0.258-0.063
										c0.01-0.035-0.019-0.084-0.06-0.078c-0.039,0.005-0.079,0.015-0.111,0.002c-0.025-0.01-0.062-0.039-0.056-0.07
										C668.211,153.317,668.09,153.283,668.059,153.368L668.059,153.368z"/>
								</g>
							</g>
						</g>
						<g>
							<g>
								<g>
									<path style="fill:#85B23B;" d="M669.754,153.113c0.077-0.048,0.149-0.019,0.232-0.014c0.038,0.002,0.066-0.046,0.044-0.077
										c-0.076-0.113-0.245-0.091-0.342-0.02C669.623,153.049,669.682,153.158,669.754,153.113L669.754,153.113z"/>
								</g>
							</g>
						</g>
						<g>
							<g>
								<g>
									<path style="fill:#85B23B;" d="M672.849,150.124c-0.002-0.032,0.016-0.074,0.055-0.071c0.041,0.004,0.053,0.059,0.08,0.082
										c0.034,0.029,0.084,0.026,0.108-0.014c0.073-0.119-0.089-0.238-0.197-0.23c-0.125,0.01-0.203,0.131-0.178,0.25
										C672.733,150.216,672.854,150.201,672.849,150.124L672.849,150.124z"/>
								</g>
							</g>
						</g>
						<g>
							<g>
								<g>
									<path style="fill:#85B23B;" d="M670.784,152.828c-0.002-0.032,0.016-0.074,0.055-0.071c0.04,0.004,0.053,0.059,0.08,0.082
										c0.034,0.029,0.084,0.026,0.108-0.014c0.073-0.119-0.089-0.239-0.197-0.23c-0.125,0.01-0.203,0.131-0.177,0.25
										C670.667,152.919,670.789,152.904,670.784,152.828L670.784,152.828z"/>
								</g>
							</g>
						</g>
						<g>
							<g>
								<g>
									<path style="fill:#85B23B;" d="M670.559,150.503c-0.064,0.093-0.05,0.23,0.035,0.305c0.077,0.068,0.281,0.106,0.311-0.033
										c0.008-0.035-0.01-0.075-0.047-0.084c-0.052-0.012-0.109,0.025-0.157-0.002c-0.042-0.023-0.048-0.08-0.027-0.119
										C670.716,150.494,670.608,150.433,670.559,150.503L670.559,150.503z"/>
								</g>
							</g>
						</g>
						<g>
							<g>
								<g>
									<path style="fill:#85B23B;" d="M668.28,150.013c-0.017-0.035-0.024-0.083,0.011-0.11c0.02-0.016,0.065-0.016,0.082,0.008
										c0.079,0.103,0.223-0.006,0.142-0.11c-0.08-0.101-0.244-0.117-0.341-0.031c-0.089,0.079-0.106,0.251-0.006,0.329
										C668.231,150.146,668.318,150.089,668.28,150.013L668.28,150.013z"/>
								</g>
							</g>
						</g>
						<g>
							<g>
								<g>
									<path style="fill:#85B23B;" d="M670.431,154.724c0.026-0.084-0.085-0.136-0.146-0.083
										c-0.086,0.074-0.008,0.199,0.066,0.246c0.153,0.097,0.412,0.027,0.414-0.179c0.001-0.069-0.086-0.083-0.122-0.033
										c-0.028,0.039-0.081,0.069-0.128,0.076c-0.023,0.003-0.05,0.003-0.071-0.006c-0.01-0.004-0.019-0.01-0.027-0.017
										c-0.007-0.007-0.085-0.11-0.088-0.017C670.328,154.77,670.415,154.78,670.431,154.724L670.431,154.724z"/>
								</g>
							</g>
						</g>
						<g>
							<g>
								<g>
									<path style="fill:#85B23B;" d="M671.406,152.078c-0.058,0.098-0.006,0.204,0.079,0.268
										c0.077,0.058,0.213,0.093,0.295,0.024c0.043-0.037,0.069-0.106,0.018-0.148c-0.042-0.034-0.089-0.009-0.134-0.004
										c-0.073,0.009-0.12-0.062-0.135-0.124C671.514,152.037,671.435,152.03,671.406,152.078L671.406,152.078z"/>
								</g>
							</g>
						</g>
						<g>
							<g>
								<g>
									<path style="fill:#EDAF1C;" d="M671.074,149.028c-0.003-0.006-0.007-0.012-0.01-0.018c-0.018-0.034-0.071-0.061-0.11-0.045
										c0.004,0,0.007-0.001,0.011-0.001c-0.044,0.003-0.077,0.034-0.079,0.079c0-0.004,0.001-0.007,0.001-0.011
										c-0.016,0.038,0.01,0.091,0.045,0.11c0.006,0.003,0.012,0.007,0.018,0.01C671.03,149.197,671.118,149.109,671.074,149.028
										L671.074,149.028z"/>
								</g>
							</g>
						</g>
						<g>
							<g>
								<g>
									<path style="fill:#EDAF1C;" d="M671.346,154.814c-0.003-0.006-0.007-0.012-0.01-0.018c-0.018-0.034-0.071-0.06-0.11-0.045
										c0.004,0,0.007,0,0.011-0.001c-0.045,0.002-0.077,0.034-0.079,0.079c0-0.004,0-0.007,0.001-0.011
										c-0.016,0.038,0.01,0.091,0.044,0.109c0.006,0.003,0.012,0.007,0.018,0.01
										C671.302,154.983,671.391,154.895,671.346,154.814L671.346,154.814z"/>
								</g>
							</g>
						</g>
						<g>
							<g>
								<g>
									<path style="fill:#EDAF1C;" d="M669.137,149.277c0.115,0,0.115-0.178,0-0.178
										C669.022,149.099,669.022,149.277,669.137,149.277L669.137,149.277z"/>
								</g>
							</g>
						</g>
						<g>
							<g>
								<g>
									<path style="fill:#EDAF1C;" d="M669.194,151.577c0.045,0.027,0.09,0.054,0.134,0.081c0.04,0.025,0.096,0.009,0.119-0.031
										c0.021-0.037,0.012-0.101-0.031-0.119c-0.048-0.021-0.096-0.042-0.145-0.062c-0.038-0.016-0.082-0.011-0.105,0.027
										C669.146,151.508,669.159,151.555,669.194,151.577L669.194,151.577z"/>
								</g>
							</g>
						</g>
						<g>
							<g>
								<g>
									<path style="fill:#EDAF1C;" d="M667.707,152.1c0.031,0.032,0.059,0.057,0.099,0.077c0.064,0.034,0.132-0.034,0.098-0.098
										c-0.021-0.04-0.045-0.068-0.078-0.098c-0.033-0.032-0.087-0.033-0.12,0C667.674,152.014,667.675,152.067,667.707,152.1
										L667.707,152.1z"/>
								</g>
							</g>
						</g>
						<g>
							<g>
								<g>
									<path style="fill:#EDAF1C;" d="M669.604,152.371c0.063,0.042,0.13,0.103,0.205,0.117c0.069,0.013,0.109-0.061,0.066-0.114
										c-0.048-0.059-0.134-0.089-0.201-0.125C669.595,152.207,669.53,152.321,669.604,152.371L669.604,152.371z"/>
								</g>
							</g>
						</g>
						<g>
							<g>
								<g>
									<path style="fill:#EDAF1C;" d="M672.147,153.121c0.057,0.078,0.163,0.127,0.26,0.124c0.103-0.003,0.099-0.147,0-0.157
										c-0.034-0.003-0.066-0.005-0.099-0.015c-0.033-0.01-0.064-0.025-0.096-0.037
										C672.167,153.02,672.118,153.081,672.147,153.121L672.147,153.121z"/>
								</g>
							</g>
						</g>
						<g>
							<g>
								<g>
									<path style="fill:#EDAF1C;" d="M673.273,151.214c-0.02,0.092,0.033,0.193,0.128,0.215c0.047,0.011,0.097,0.003,0.139-0.023
										c0.053-0.033,0.07-0.084,0.061-0.144c-0.007-0.043-0.071-0.069-0.105-0.043c-0.016,0.012-0.032,0.022-0.048,0.034
										c-0.008,0.007-0.012,0.015-0.021,0.014c0.007,0.001-0.007-0.004-0.01-0.008c-0.007-0.008-0.007-0.016-0.007-0.027
										C673.414,151.154,673.289,151.136,673.273,151.214L673.273,151.214z"/>
								</g>
							</g>
						</g>
						<g>
							<g>
								<g>
									<path style="fill:#EDAF1C;" d="M673.36,153.03c0.092,0.019,0.193-0.033,0.215-0.129c0.011-0.047,0.003-0.098-0.023-0.139
										c-0.033-0.053-0.084-0.07-0.144-0.061c-0.042,0.007-0.07,0.071-0.043,0.105c0.012,0.016,0.022,0.032,0.034,0.048
										c0.007,0.008,0.015,0.012,0.014,0.021c0.001-0.007-0.003,0.007-0.007,0.01c-0.008,0.007-0.016,0.008-0.027,0.007
										C673.3,152.889,673.282,153.014,673.36,153.03L673.36,153.03z"/>
								</g>
							</g>
						</g>
						<g>
							<g>
								<g>
									<path style="fill:#EDAF1C;" d="M671.234,151.101c0.053,0.107,0.216,0.217,0.327,0.13c0.039-0.031,0.021-0.093-0.015-0.115
										c-0.035-0.022-0.077-0.015-0.114-0.032c-0.029-0.012-0.05-0.034-0.065-0.06
										C671.316,150.938,671.19,151.013,671.234,151.101L671.234,151.101z"/>
								</g>
							</g>
						</g>
						<g>
							<g>
								<g>
									<path style="fill:#EDAF1C;" d="M671.634,154.556c0.045,0.004,0.094,0.012,0.139,0.007c0.044-0.006,0.082-0.034,0.082-0.082
										c0-0.049-0.038-0.076-0.082-0.082c-0.044-0.006-0.094,0.003-0.139,0.007C671.537,154.413,671.537,154.548,671.634,154.556
										L671.634,154.556z"/>
								</g>
							</g>
						</g>
						<g>
							<g>
								<g>
									<path style="fill:#EDAF1C;" d="M670.108,154.167c0.016,0.017,0.031,0.035,0.047,0.051c0.032,0.03,0.06,0.04,0.104,0.033
										c0.025-0.004,0.052-0.031,0.056-0.056c0.007-0.043-0.002-0.072-0.033-0.104c-0.016-0.016-0.034-0.031-0.05-0.047
										c-0.035-0.032-0.09-0.034-0.124,0C670.073,154.078,670.075,154.133,670.108,154.167L670.108,154.167z"/>
								</g>
							</g>
						</g>
						<g>
							<g>
								<g>
									<path style="fill:#EDAF1C;" d="M668.76,153.314c0.009,0.001,0.018,0.003,0.027,0.004c0.05,0.008,0.101-0.021,0.101-0.077
										c0-0.055-0.051-0.085-0.101-0.077c-0.009,0.001-0.018,0.003-0.027,0.004C668.689,153.18,668.689,153.303,668.76,153.314
										L668.76,153.314z"/>
								</g>
							</g>
						</g>
						<g>
							<g>
								<g>
									<path style="fill:#EDAF1C;" d="M667.472,152.847c-0.043,0.12,0.042,0.287,0.182,0.278c0.07-0.004,0.107-0.102,0.038-0.139
										c-0.039-0.021-0.086-0.056-0.078-0.099C667.633,152.793,667.504,152.757,667.472,152.847L667.472,152.847z"/>
								</g>
							</g>
						</g>
						<g>
							<g>
								<g>
									<path style="fill:#EDAF1C;" d="M671.703,149.091c0.039-0.018,0.087-0.022,0.129-0.012c0.044,0.01,0.081,0.043,0.125,0.051
										c0.045,0.008,0.08-0.026,0.071-0.072c-0.014-0.076-0.104-0.117-0.173-0.128c-0.079-0.013-0.155,0-0.221,0.045
										C671.563,149.024,671.625,149.127,671.703,149.091L671.703,149.091z"/>
								</g>
							</g>
						</g>
						<g>
							<g>
								<g>
									<path style="fill:#EDAF1C;" d="M670.094,150.615c0.04-0.019,0.077-0.038,0.092-0.083c0.009-0.028-0.011-0.058-0.037-0.066
										c-0.045-0.014-0.086,0.009-0.124,0.03c-0.033,0.018-0.043,0.063-0.025,0.094C670.02,150.624,670.06,150.63,670.094,150.615
										L670.094,150.615z"/>
								</g>
							</g>
						</g>
						<g>
							<g>
								<g>
									<path style="fill:#EDAF1C;" d="M667.773,150.498c0.04-0.019,0.076-0.039,0.092-0.083c0.01-0.028-0.011-0.058-0.037-0.066
										c-0.045-0.014-0.085,0.01-0.124,0.03c-0.032,0.018-0.043,0.063-0.025,0.094
										C667.699,150.508,667.739,150.514,667.773,150.498L667.773,150.498z"/>
								</g>
							</g>
						</g>
						<g>
							<g>
								<g>
									<path style="fill:#EDAF1C;" d="M669.494,148.959c0.021,0.003,0.043,0.005,0.064,0.008c0.043,0.005,0.081-0.041,0.081-0.08
										c0-0.039-0.037-0.086-0.081-0.081c-0.021,0.003-0.043,0.005-0.064,0.008c-0.039,0.005-0.073,0.03-0.073,0.073
										C669.421,148.93,669.455,148.954,669.494,148.959L669.494,148.959z"/>
								</g>
							</g>
						</g>
						<g>
							<g>
								<g>
									<path style="fill:#EDAF1C;" d="M673.615,152.151c0.004-0.005,0.008-0.01,0.014-0.014c-0.015,0.006-0.031,0.013-0.046,0.019
										c0.001,0,0.002,0,0.003,0c0.036-0.005,0.06-0.021,0.073-0.055c0.013-0.035,0.027-0.069,0.038-0.104
										c0.013-0.042-0.015-0.089-0.057-0.1c-0.043-0.012-0.087,0.015-0.1,0.057c-0.011,0.035-0.018,0.071-0.027,0.107
										c-0.006,0.025-0.001,0.056,0.019,0.074c0.001,0.001,0.003,0.002,0.004,0.003c-0.006-0.01-0.011-0.019-0.017-0.029
										c0.001,0.001,0.001,0.003,0.002,0.004C673.526,152.154,673.581,152.191,673.615,152.151L673.615,152.151z"/>
								</g>
							</g>
						</g>
						<g>
							<g>
								<g>
									<path style="fill:#EDAF1C;" d="M667.242,151.234c-0.004,0.002-0.008,0.005-0.012,0.008c0.01-0.003,0.021-0.006,0.031-0.008
										c-0.002,0-0.004,0-0.006,0c-0.025,0.001-0.055,0.013-0.066,0.038c-0.052,0.117,0.012,0.265,0.149,0.273
										c0.027,0.002,0.062-0.017,0.073-0.042c0.019-0.043,0.013-0.089-0.03-0.116c-0.009-0.005-0.018-0.011-0.027-0.016
										c-0.009-0.006-0.009-0.005-0.002,0c-0.004-0.003-0.008-0.007-0.011-0.011c0.015,0.016-0.011-0.022-0.002-0.003
										c-0.005-0.01-0.007-0.02-0.01-0.031c0.001,0.009,0.001,0.008,0.001-0.002c-0.002,0.012-0.002,0.007,0.002-0.015
										c0-0.024-0.011-0.041-0.026-0.059c0.005,0.02,0.011,0.041,0.016,0.061c0.001-0.005,0.002-0.01,0.003-0.015
										C667.335,151.25,667.285,151.209,667.242,151.234L667.242,151.234z"/>
								</g>
							</g>
						</g>
						<g>
							<g>
								<g>
									<path style="fill:#EDAF1C;" d="M672.451,149.641c0.031,0.017,0.062,0.036,0.095,0.051c0.017,0.008,0.036,0.02,0.055,0.024
										c0.03,0.007,0.057,0.002,0.084-0.011c0.032-0.015,0.042-0.055,0.035-0.086c-0.016-0.077-0.117-0.102-0.18-0.13
										c-0.044-0.019-0.094-0.013-0.12,0.031C672.396,149.562,672.41,149.618,672.451,149.641L672.451,149.641z"/>
								</g>
							</g>
						</g>
						<g>
							<g>
								<g>
									<path style="fill:#EDAF1C;" d="M672.924,153.372c0.038-0.016,0.076-0.025,0.118-0.023c0.046,0.002,0.088,0.028,0.13-0.005
										c0.033-0.026,0.044-0.06,0.026-0.099c-0.001-0.003-0.003-0.007-0.005-0.01c-0.013-0.028-0.045-0.04-0.073-0.042
										c-0.088-0.006-0.172,0.012-0.247,0.057C672.81,153.288,672.851,153.402,672.924,153.372L672.924,153.372z"/>
								</g>
							</g>
						</g>
					</g>
					<g>
						<circle style="fill:#86B8ED;" cx="670.583" cy="162.227" r="0.752"/>
					</g>
				</g>
				<g>
					<path style="fill:#F6A993;" d="M661.637,149.029c0.043-0.076,2.531-1.503,3.236-2.129c0.189-0.168,0.389-0.342,0.634-0.404
						c0.307-0.077,0.625,0.033,0.929,0.121c0.919,0.268,1.894,0.344,2.843,0.223c0.305-0.039,0.637-0.093,0.901,0.063
						c0.145,0.085,0.251,0.226,0.317,0.381c0.185,0.436,0.051,0.958-0.236,1.334c-0.287,0.376-0.706,0.629-1.13,0.838
						c-0.99,0.486-2.181,0.774-3.185,0.316c-2.101,3.312-3.436,4.061-3.823,4.021c-0.369-0.038-1.532-0.114-1.548-0.91
						C660.546,151.475,661.146,149.899,661.637,149.029z"/>
				</g>
			</g>
			<g>
				<g>
					<path style="fill:#ED9580;" d="M577.151,141.923c0.918,4.695,1.842,8.869,4.833,12.603c3.702,4.621,10.393,6.735,15.96,4.716
						c5.567-2.019,8.35-10.926,7.295-16.753c0,0-5.089-0.493-6.403-1.871c-0.687-0.72-2.404-6.536-1.571-10.747
						c0.698-3.528-12.183-0.611-12.414,0.867c-0.34,2.172,1.45,8.497-0.456,9.881C583.771,141.071,579.531,141.53,577.151,141.923z"
						/>
				</g>
				<g>
					<path style="fill:#F6A993;" d="M580.534,127.914c1.168,2.839,2.824,5.619,5.448,7.439c2.623,1.82,6.378,2.476,9.225,0.973
						c3.194-1.685,4.346-5.387,4.91-8.755c0.798-4.76,0.997-9.606,0.592-14.408c-0.13-1.548-0.334-3.126-1.06-4.526
						c-1.363-2.626-4.458-4.24-7.585-4.525C576.054,102.654,576.472,118.04,580.534,127.914z"/>
				</g>
				<g>
					<g>
						<path style="fill:#EDF6FE;" d="M578.062,122.072c0.878,0.887,1.842,1.662,2.839,2.411c0.937,0.704,1.855,1.738,2.989,2.102
							c0.217,0.07,0.483-0.166,0.394-0.394c-0.394-1.004-1.379-1.571-2.223-2.183c-1.144-0.83-2.327-1.61-3.391-2.543
							C578.258,121.103,577.669,121.675,578.062,122.072L578.062,122.072z"/>
					</g>
				</g>
				<g>
					<g>
						<path style="fill:#EDF6FE;" d="M598.099,124.238c0.81-0.841,1.596-1.704,2.405-2.545c0.513-0.533,1.295-1.035,1.585-1.724
							c0.086-0.204-0.131-0.461-0.339-0.445c-0.778,0.062-1.352,0.86-1.835,1.402c-0.808,0.905-1.55,1.869-2.335,2.793
							C597.278,124.074,597.766,124.583,598.099,124.238L598.099,124.238z"/>
					</g>
				</g>
				<g>
					<g>
						<path style="fill:#EDF6FE;" d="M579.108,127.826c1.226,1.273,2.345,2.672,3.461,4.041c0.859,1.054,2.009,3.122,3.29,3.694
							c0.189,0.084,0.409-0.054,0.356-0.273c-0.327-1.352-2.026-2.834-2.894-3.874c-1.178-1.412-2.345-2.853-3.728-4.074
							C579.265,127.049,578.798,127.505,579.108,127.826L579.108,127.826z"/>
					</g>
				</g>
				<g>
					<g>
						<path style="fill:#EDF6FE;" d="M598.605,133.188c0.478-1.163,1.007-2.304,1.564-3.431c0.44-0.889,1.161-1.852,1.336-2.828
							c0.062-0.343-0.338-0.636-0.614-0.357c-0.721,0.727-1.046,1.947-1.428,2.888c-0.48,1.185-0.929,2.384-1.326,3.6
							C598.039,133.363,598.49,133.468,598.605,133.188L598.605,133.188z"/>
					</g>
				</g>
				<g>
					<path style="fill:#4B566B;" d="M585.611,121.769c0,0.841-0.374,1.522-0.836,1.522c-0.462,0-0.836-0.682-0.836-1.522
						c0-0.841,0.374-1.522,0.836-1.522C585.237,120.246,585.611,120.928,585.611,121.769z"/>
				</g>
				<g>
					<path style="fill:#4B566B;" d="M595.677,120.709c0,0.841-0.374,1.522-0.836,1.522c-0.462,0-0.836-0.681-0.836-1.522
						c0-0.841,0.374-1.522,0.836-1.522C595.302,119.187,595.677,119.869,595.677,120.709z"/>
				</g>
				<g>
					<path style="fill:#E64B37;" d="M582.439,111.164c1.539,0.638,5.835,3.436,7.096,4.524c4.796,4.142,7.562,4.653,9.893,4.899
						c6.095,0.643,4.227-3.775,4.618-4.098c0.763-0.632,0.625-1.82,0.417-2.789c-0.855-3.991-2.389-7.411-5.78-9.684
						c-2.181-1.462-4.507-2.726-7.131-2.808c-5.034-0.158-11.25,2.496-14.402,6.424c-1.607,2.003-3.347,13.371,0,15.353
						C579.975,124.657,581.526,113.512,582.439,111.164z"/>
				</g>
				<g>
					<path style="fill:#F6A993;" d="M580.145,124.059c0,0-0.916-2.616-1.563-3.066c-0.648-0.449-2.626-1.657-2.626,1.582
						c0,1.88,0.734,3.736,1.974,5.149C581.507,131.801,581.507,126.785,580.145,124.059z"/>
				</g>
				<g>
					<path style="fill:#F6A993;" d="M599.804,123.106c0,0,0.508-2.725,1.08-3.267c0.572-0.542,2.344-2.036,2.836,1.165
						c0.285,1.858-0.159,3.804-1.17,5.389C599.633,130.965,598.872,126.007,599.804,123.106z"/>
				</g>
				<g>
					<g>
						<path style="fill:#DD8372;" d="M590.212,120.628c-0.161,1.036,0.04,1.936,0.39,2.917c0.187,0.523,0.406,1.035,0.567,1.568
							c0.12,0.397,0.476,2.526-0.468,2.007c-0.22-0.121-0.46,0.034-0.476,0.273c-0.005,0.079-0.011,0.158-0.016,0.237
							c-0.011,0.16,0.096,0.32,0.229,0.399c1.208,0.716,1.934-0.525,1.877-1.632c-0.104-2.021-1.734-3.612-1.503-5.687
							C590.848,120.371,590.265,120.289,590.212,120.628L590.212,120.628z"/>
					</g>
				</g>
				<g>
					<g>
						<path style="fill:#DD8372;" d="M577.484,122.008c-0.968-0.08-0.602,1.983-0.491,2.488c0.264,1.201,1.065,2.847,2.308,3.269
							c0.15,0.051,0.305-0.142,0.212-0.275c-0.492-0.707-1.173-1.197-1.584-1.991c-0.141-0.272-1.143-3.118-0.445-3.193
							C577.673,122.284,577.677,122.023,577.484,122.008L577.484,122.008z"/>
					</g>
				</g>
				<g>
					<g>
						<path style="fill:#DD8372;" d="M601.793,120.763c1.822,1.058-0.027,4.119-0.296,5.527c-0.036,0.19,0.225,0.327,0.328,0.139
							c0.761-1.39,2.065-4.915,0.145-5.969C601.772,120.351,601.597,120.649,601.793,120.763L601.793,120.763z"/>
					</g>
				</g>
				<g>
					<g>
						<path style="fill:#E64B37;" d="M582.206,118.288c0.44-0.425,0.957-0.706,1.558-0.833c0.527-0.111,1.029,0.034,1.545-0.046
							c0.266-0.042,0.254-0.405,0.069-0.528c-0.508-0.338-1.325-0.208-1.879-0.037c-0.644,0.199-1.206,0.587-1.647,1.091
							C581.642,118.175,581.972,118.514,582.206,118.288L582.206,118.288z"/>
					</g>
				</g>
				<g>
					<g>
						<path style="fill:#4B566B;" d="M593.881,131.704c-0.182,0.912-0.608,1.8-1.544,2.067c-0.827,0.231-1.642-0.268-2.347-0.973
							c-1.131-1.131-1.946-2.821-1.946-2.821s4.293-0.255,5.898-0.717C593.941,129.26,594.112,130.5,593.881,131.704z"/>
					</g>
					<g>
						<path style="fill:#E64B37;" d="M593.881,131.704c-0.182,0.912-0.608,1.8-1.544,2.067c-0.827,0.231-1.642-0.268-2.347-0.973
							C590.597,131.607,591.874,130.378,593.881,131.704z"/>
					</g>
				</g>
				<g>
					<path style="fill:#EDF6FE;" d="M582.75,124.829c0,0,8.163-1.679,15.343-1.539c0,0,1.045,6.043,0.601,9.188
						c0,0-0.194,4.266-5.819,4.893c-5.625,0.628-8.359-1.966-8.68-3.544C583.875,132.25,582.5,126.534,582.75,124.829z"/>
				</g>
			</g>
		</g>
	</g>
</g>
</svg>
