<svg xmlns="http://www.w3.org/2000/svg" width="1791.999" height="1791.999" fill-rule="evenodd" clip-rule="evenodd" image-rendering="optimizeQuality" shape-rendering="geometricPrecision" text-rendering="geometricPrecision" viewBox="0 0 47413.32 47413.32" id="deliveryman-riding-scooter"><rect width="47413.32" height="47413.32" fill="none"></rect><polygon fill="#d9d9d9" fill-rule="nonzero" points="3598.16 26991.36 15571.53 26991.36 15571.53 17804.92 3598.16 17804.92"></polygon><polygon fill="#b2b2b2" fill-rule="nonzero" points="3598.16 20135.43 15571.53 20135.43 15571.53 17804.96 3598.16 17804.96"></polygon><polygon fill="#ac1e23" fill-rule="nonzero" points="9264.74 26992.63 9993.37 26992.63 9993.37 17804.92 9264.74 17804.92"></polygon><polygon fill="#ac1e23" fill-rule="nonzero" points="3578.74 22362.34 15576.39 22362.34 15576.39 21634.98 3578.74 21634.98"></polygon><polygon fill="#ac1e23" fill-rule="nonzero" points="9652.01 17839.53 6163.53 15326.2 5187.65 16738.81"></polygon><polygon fill="#ac1e23" fill-rule="nonzero" points="13198.84 15952.56 9652.01 17839.53 14023.43 17213.01"></polygon><polygon fill="#ac1e23" fill-rule="nonzero" points="9652.01 17839.53 11459.43 15874.54 10176.77 15874.54"></polygon><polygon fill="#ac1e23" fill-rule="nonzero" points="11070.75 30266.66 4587.95 27611.46 4915.54 26808.54 11398.37 29462.47"></polygon><polygon fill="#ac1e23" fill-rule="nonzero" points="4553.24 27607.58 13354.84 27607.58 13354.84 26802.23 4553.24 26802.23"></polygon><polygon fill="#231f20" fill-rule="nonzero" points="21626.47 38406.05 31014.93 38406.05 31014.93 36404.15 21626.47 36404.15"></polygon><path fill="#e31e22" fill-rule="nonzero" d="M8459.58 32951.25l-2590.34 0c-501.13,0 -913.44,-410.36 -913.44,-914.13l0 -207.1c0,-503.63 412.31,-915.22 913.44,-915.22l2590.34 0c502.54,0 914.82,411.59 914.82,915.22l0 207.1c0,503.77 -412.28,914.13 -914.82,914.13z"></path><path fill="#ac1e23" fill-rule="nonzero" d="M8440.15 30759.99l-1615.83 0 -841.26 2347.15 2457.09 0c645.5,0 1175.77,-527.91 1175.77,-1173.55 0,-645.5 -530.27,-1173.6 -1175.77,-1173.6z"></path><path fill="#fbad50" fill-rule="nonzero" d="M7984.83 34452.03l-2272.46 0c-340.09,0 -619.12,-278.64 -619.12,-618.72l0 -140.64c0,-340.09 279.03,-618.69 619.12,-618.69l2272.46 0c340.09,0 617.74,278.6 617.74,618.69l0 140.64c0,340.08 -277.65,618.72 -617.74,618.72z"></path><path fill="#ac1e23" fill-rule="nonzero" d="M7861.26 32969.15l-1282.67 0 -669.09 1587.67 1951.76 0c513.63,0 932.86,-356.61 932.86,-793.89 0,-437.13 -419.23,-793.78 -932.86,-793.78z"></path><path fill="#155f84" fill-rule="nonzero" d="M34936.38 23383.77l-62.47 -161.04c-335.96,-876.91 -1329.88,-1319.3 -2207.23,-981.86l-163.79 62.77 1249.36 3365.92 201.3 -78.01c878.69,-336.22 1318.76,-1329.49 982.83,-2207.78z"></path><path fill="#ac1e23" fill-rule="nonzero" d="M12479.74 29499.54c0,0 -4486.58,690.33 -5315.33,2519.67 -827.38,1830.62 380.35,3660.11 380.35,3660.11 0,0 13702.74,3624.16 14842.45,3244.5 1138.33,-379.7 -310.96,-2416.14 241.56,-3486.13 551.1,-1069.95 1414.53,-1760.28 1725.49,-2969.67 310.95,-1208.13 -274.87,-3424.78 -274.87,-3424.78l-11564.93 318.31 -34.72 137.99z"></path><path fill="#231f20" fill-rule="nonzero" d="M18232.39 40355.56c0,2754.97 -2232.2,4988.33 -4986.37,4988.33 -2754.13,0 -4987.74,-2233.36 -4987.74,-4988.33 0,-2754.89 2233.61,-4986.94 4987.74,-4986.94 2754.17,0 4986.37,2232.05 4986.37,4986.94z"></path><path fill="#95979a" fill-rule="nonzero" d="M15986.31 40355.56c0,1513.65 -1228.53,2739.64 -2740.29,2739.64 -1513.1,0 -2738.87,-1225.99 -2738.87,-2739.64 0,-1512.3 1225.77,-2739.52 2738.87,-2739.52 1511.76,0 2740.29,1227.22 2740.29,2739.52z"></path><path fill="#664624" fill-rule="nonzero" d="M14419.03 40355.56c0,648.19 -524.72,1174.86 -1173.01,1174.86 -649.67,0 -1174.39,-526.67 -1174.39,-1174.86 0,-648.07 524.72,-1173.55 1174.39,-1173.55 648.29,0 1173.01,525.48 1173.01,1173.55z"></path><path fill="#231f20" fill-rule="nonzero" d="M42960.08 40355.56c0,2754.97 -2233.62,4988.33 -4989.16,4988.33 -2754.13,0 -4987.74,-2233.36 -4987.74,-4988.33 0,-2754.89 2233.61,-4986.94 4987.74,-4986.94 2755.54,0 4989.16,2232.05 4989.16,4986.94z"></path><path fill="#95979a" fill-rule="nonzero" d="M40711.21 40355.56c0,1513.65 -1225.78,2739.64 -2740.29,2739.64 -1511.72,0 -2738.87,-1225.99 -2738.87,-2739.64 0,-1512.3 1227.15,-2739.52 2738.87,-2739.52 1514.51,0 2740.29,1227.22 2740.29,2739.52z"></path><path fill="#664624" fill-rule="nonzero" d="M39146.72 40355.56c0,648.19 -527.51,1174.86 -1175.8,1174.86 -648.25,0 -1173.01,-526.67 -1173.01,-1174.86 0,-648.07 524.76,-1173.55 1173.01,-1173.55 648.29,0 1175.8,525.48 1175.8,1173.55z"></path><polygon fill="#ac1e23" fill-rule="nonzero" points="19348.47 39199.91 32257.59 39199.91 32257.59 37991.86 19348.47 37991.86"></polygon><path fill="#e31e22" fill-rule="nonzero" d="M20838.01 39868.53c2.76,-74.14 6.93,-148.25 6.93,-222.42 0,-4200.78 -3405.22,-7605.08 -7605.84,-7605.08 -4199.25,0 -7604.46,3404.3 -7604.46,7605.08 0,74.17 4.17,148.28 6.92,222.42l15196.45 0z"></path><path fill="#ac1e23" fill-rule="nonzero" d="M29142.1 20933.06l1726.9 -621.19c0,0 3771.69,3665.07 5325.05,7634.43 1553.39,3969.39 1104.99,6179.78 206.84,8181.69 -1014.76,2262.71 -2208.57,2140.01 -2208.57,2140.01l-4626.82 -69.03c0,0 2934.6,-3520.67 3037.33,-7870.95 111.07,-4607.4 -3460.73,-9394.96 -3460.73,-9394.96z"></path><path fill="#e31e22" fill-rule="nonzero" d="M43834.6 37763.05c-59.68,-176.4 -127.7,-354.11 -205.43,-528.01 -1403.45,-3157.57 -5101.57,-4580.44 -8259.67,-3176.7 -2466.81,1096.8 -3874.42,3596.04 -3702.29,6142.6l12167.39 -2437.89z"></path><path fill="#231f20" fill-rule="nonzero" d="M29530.79 17967.37l-1420.12 0c-595.53,0 -1084.15,-488.37 -1084.15,-1085.42l0 -245.44c0,-597.05 488.62,-1085.28 1084.15,-1085.28l1420.12 0c598.32,0 1085.57,488.23 1085.57,1085.28l0 245.44c0,597.05 -487.25,1085.42 -1085.57,1085.42z"></path><path fill="#231f20" fill-rule="nonzero" d="M30659.37 21123.67l-498.34-237.79c1.38-5.15 305.38-678.81 147.13-1846.02-158.25-1176.05-764.87-1963.57-771.83-1972.59l434.53-341.22c29.13 37.08 705.18 907.61 885.64 2239.7 180.47 1343.48-181.84 2125.85-197.13 2157.92zM10236.45 26780.49l0 659.67c0 1312.82 670.51 2386.72 1488.13 2386.72l11936.99 0c817.63 0 1486.72-1073.9 1486.72-2386.72l0-659.67-14911.84 0z"></path><polygon fill="#155f84" fill-rule="nonzero" points="21999.9 12448.5 22209.53 11489.69 19799.63 10170.49 19587.24 10925.94"></polygon><path fill="#664624" fill-rule="nonzero" d="M20732.49 15410.59c2305.76,522.8 1060.57,-2188.6 1070.31,-3904.24l463.63 -3475.87 -925.91 -378.43c0,0 -558.06,913.99 -1286.83,1436.93 -199.93,811.8 -420.65,1689.98 -502.55,1912.48 45.81,455.07 -1124.41,3884.96 1181.35,4409.13z"></path><path fill="#815932" fill-rule="nonzero" d="M24119.64 5377.82c279.03,983.09 -267.9,1620.98 -22.21,2063.22 245.73,442.43 377.6,416.88 374.81,585.56 -4.17,170.03 -313.71,189.2 -356.76,414.24 -54.14,272.21 -191.56,669.78 -237.36,954.93 -58.31,352.84 -4.17,589.26 -305.41,704.35 -555.27,213.51 -1384.02,-237.79 -1856.02,-492.11 -669.09,-361.9 -1221.57,-1296.29 -1213.27,-1941.93 -481.67,-201.99 -2055.87,-1490.64 -967.54,-2839.26 1088.32,-1348.76 4060.42,-1295.02 4583.76,551z"></path><path fill-rule="nonzero" d="M24119.64 5377.82c-177.67,-147.02 -1658.88,-423.15 -1998.97,345.09 -283.2,640.5 -126.32,965.19 -950.91,1224.79 -409.52,-632.89 -945.33,79.25 -594.15,371.91 76.35,65.23 2.79,276.24 2.79,276.24l161.04 919.09 -677.43 575.27c0,0 -1485.38,-715.87 -1370.14,-2537.61 116.61,-1854.85 1093.87,-2862.26 2254.41,-2853.24 2073.92,15.26 2963.77,869.27 3173.36,1678.46z"></path><path fill="#1e7dac" fill-rule="nonzero" d="M24137.69 5321.58c80.52,-311.94 -94.4,-1837.11 -648.25,-2292.18 -555.31,-456.41 -1844.93,-770.84 -2315.51,-723.52 -470.59,45.95 -1701.9,622.46 -2157.23,1197.87 -435.9,549.58 -230.43,1917.52 -194.34,2303.55 2092,154.78 3419.09,23.05 5315.33,-485.72z"></path><path fill="#18658c" fill-rule="nonzero" d="M21786.13 5790.78c0,0 1113.33,205.72 3042.91,324.69 1450.63,88.17 1774.09,-892.32 1774.09,-892.32l-2459.89 -474.35c0,0 -120.74,189.24 -753.77,507.55 -635.79,318.31 -1603.34,534.43 -1603.34,534.43z"></path><path fill-rule="nonzero" d="M23844.78 7292.79c-29.13,132.99 -161,217.39 -294.28,187.97 -130.5,-29.43 -215.18,-159.77 -186.01,-292.77 27.76,-132.99 159.63,-217.24 292.91,-187.96 133.24,29.42 216.55,161.04 187.38,292.76z"></path><path fill="#fff" fill-rule="nonzero" d="M23901.71 9278.18c51.35,-187.97 112.45,-392.46 152.71,-586.8l-734.36 -75.37c0,0 230.44,467.83 581.65,662.17z"></path><path fill="#815932" fill-rule="nonzero" d="M21164.22 7311.96c-106.9,374.66 -381.76,622.6 -612.19,556.1 -230.44,-66.49 -329,-423.11 -219.31,-797.66 108.27,-373.43 381.72,-622.6 612.16,-556.1 230.43,66.5 327.62,424.38 219.34,797.66z"></path><path fill-rule="nonzero" d="M24079.38 6808.33l-982.83 -111.36 6.96 -53.56c22.21,-138.13 180.46,-227.53 353.96,-200.75l685.76 58.88 -63.85 306.79z"></path><path fill="#1e7dac" fill-rule="nonzero" d="M21257.25 2333.93l-424.82 85.67c-73.56,15.4 -142.95,-31.93 -158.25,-103.57l0 0c-15.25,-72.73 31.93,-143.14 104.11,-158.54l427.57 -85.52c70.81,-14.13 143,31.96 156.87,104.84l0 0c15.26,71.49 -31.92,143.1 -105.48,157.12z"></path><path fill-rule="nonzero" d="M19336 6335.36c-36.09,272.22 -288.74,461.45 -560.85,424.38 -270.69,-38.45 -460.87,-288.89 -424.77,-561.25 38.88,-272.22 288.74,-461.56 562.22,-424.38 272.07,38.34 460.87,288.89 423.4,561.25z"></path><path fill-rule="nonzero" d="M19276.28 7186.72c-38.84,272.26 -288.74,462.69 -560.81,424.38 -272.07,-37.07 -462.25,-288.88 -424.78,-559.83 38.85,-272.36 288.74,-462.83 560.82,-424.52 270.69,37.07 462.28,288.88 424.77,559.97z"></path><path fill-rule="nonzero" d="M19591.4 7951.23c-36.09,270.95 -288.74,461.41 -559.43,424.34 -272.07,-38.3 -462.25,-288.88 -424.78,-561.25 37.47,-272.21 288.74,-461.41 560.81,-424.34 272.11,37.07 462.29,288.89 423.4,561.25z"></path><path fill-rule="nonzero" d="M20124.46 8572.41c-37.47,271.13 -288.74,461.6 -560.81,424.53 -272.08,-38.31 -462.25,-289.03 -424.78,-561.25 37.47,-272.36 290.12,-461.56 562.23,-424.38 270.69,36.93 460.87,288.89 423.36,561.1z"></path><path fill-rule="nonzero" d="M20796.34 8806.33c-38.85,271.13 -288.74,461.56 -560.81,423.25 -273.49,-37.07 -462.25,-287.61 -424.78,-559.98 38.85,-272.21 288.74,-462.68 560.81,-424.37 272.11,37.07 462.29,288.88 424.78,561.1z"></path><path fill="#1e7dac" fill-rule="nonzero" d="M22197.03 13013.51l-608.03 -945.91 -2208.61 -1275.89c0,0 -645.5,787.52 -823.17,2334.36 -116.61,1016.28 -1886.53,8750.54 -1886.53,8750.54l4464.36 521.57c0,0 1035.6,-3870.97 1385.44,-5454.88 180.46,-813.06 -323.46,-3929.79 -323.46,-3929.79z"></path><polygon fill="#155f84" fill-rule="nonzero" points="21579.29 12316.92 21791.68 11356.84 19380.39 10038.77 19168 10794.36"></polygon><polygon fill="#0f5070" fill-rule="nonzero" points="22197.03 13013.51 21779.18 11413.08 21618.17 12146.85"></polygon><path fill="#132e42" fill-rule="nonzero" d="M16250.04 22560.45c0,0 -1009.18,2133.64 -341.46,3316.21 960.62,1696.36 8597,1788.4 8597,1788.4l248.49 8347.91 2314.09 -83.13 909.28 -10909.69 -6968.71 -1730.92 -4758.69 -728.78z"></path><path fill="#664624" fill-rule="nonzero" d="M21175.31 22372.63l-4528.25 -502.4c0,0 -142.95,227.54 -241.52,402.71 -99.94,176.3 -260.98,485.73 -260.98,485.73l4861.41 540.85 169.34 -926.89z"></path><polygon fill="#132e42" fill-rule="nonzero" points="18350.38 23004.11 18015.83 22967.04 18119.94 22033.77 18454.49 22070.95"></polygon><path fill="#815932" fill-rule="nonzero" d="M27501.26 21661.87l651.05 -744.07 -4493.54 -2386.68c0,0 -2619.5,-6287.08 -2941.55,-6330.67 0,0 -803.75,-137.99 -1157.75,565.13 -353.97,703.11 2797.18,7068.21 2797.18,7068.21l5144.61 1828.08z"></path><path fill="#155f84" fill-rule="nonzero" d="M20092.53 15783.88c241.56,-35.81 767.7,-154.77 1081.41,-278.74 501.13,-195.58 912.02,-554.84 1045.31,-758.09l-767.66 -1629.86c-453.95,-1016.43 -995.34,-1150.65 -1510.35,-971.57 -515.01,180.18 -738.52,415.47 -620.53,1193.96 117.99,778.49 771.82,2444.3 771.82,2444.3z"></path><path fill="#fff" fill-rule="nonzero" d="M20947.67 14943.89c-292.91,109.94 -752.4,221.16 -1046.69,277.51 109.66,331.1 191.55,562.48 191.55,562.48 241.56,-35.81 767.7,-154.77 1081.41,-278.74 501.13,-195.58 912.02,-554.84 1045.31,-758.09l-233.23 -495.99c-167.96,189.2 -581.65,521.53 -1038.35,692.83z"></path><path fill="#0a4f6f" fill-rule="nonzero" d="M20642.26 23264.95l-294.29 -33.31c126.33,117.7 254.03,256.93 359.55,414.24 405.36,597.05 255.4,956.31 223.48,1053.46l-2043.4 -1633.88 -310.96 -35.8 2501.52 2081.3c0,0 54.14,-72.91 92.99,-150.89 37.5,-76.79 229.05,-639.27 -270.7,-1375.58 -80.48,-116.32 -167.96,-222.39 -258.19,-319.54z"></path><path fill="#664624" fill-rule="nonzero" d="M24541.67 37499.72l0 -1343.59 2147.51 0c0,0 1676.93,-131.68 1918.45,262.08 138.83,224.96 86.07,1081.51 86.07,1081.51l-4152.03 0z"></path><polygon fill="#9d764b" fill-rule="nonzero" points="24536.12 37493.34 28706.16 37493.34 28706.16 37151.98 24536.12 37151.98"></polygon><polygon fill="#0a4f6f" fill-rule="nonzero" points="24468.07 34638.72 27261.12 34638.72 27345.8 36158.67 24536.12 36158.67"></polygon><path fill="#815932" fill-rule="nonzero" d="M27490.18 21661.87c0,0 669.09,646.77 1025.85,217.24 476.16,-573.86 860.67,-988.09 1186.89,-604.69 744.06,875.82 805.16,503.77 805.16,503.77 0,0 -174.92,-1164.68 -1167.47,-1273.24 -709.35,-78.02 -1474.25,451.15 -1474.25,451.15l-376.18 705.77z"></path><path fill="#231f20" fill-rule="nonzero" d="M30354 22003.23c0,495.98 -402.6,898.58 -899.57,898.58 -496.96,0 -898.14,-402.6 -898.14,-898.58 0,-497.4 401.18,-898.84 898.14,-898.84 496.97,0 899.57,401.44 899.57,898.84z"></path></svg>